<svg width="16" height="16" viewBox="0 0 16 16" fill="none" xmlns="http://www.w3.org/2000/svg">
<path fill-rule="evenodd" clip-rule="evenodd" d="M6.92359 2.33396C7.1242 1.7653 7.92741 1.76751 8.12966 2.33251C8.61196 3.68399 9.22945 4.90407 10.1533 5.87069L10.1723 5.89251C11.1094 6.86072 12.4178 7.43949 13.6857 7.87691C14.2591 8.07631 14.2553 8.8923 13.6784 9.08443L13.1954 9.25028C12.0684 9.65586 10.9393 10.2002 10.0777 11.0456L9.89875 11.2303C9.02081 12.1749 8.4723 13.4047 8.07292 14.6652L8.03073 14.7685C7.80353 15.2158 7.14873 15.2301 6.90468 14.7903L6.85958 14.6885C6.39376 13.3816 5.88028 12.0991 4.897 11.1168C4.04094 10.2623 2.93321 9.68533 1.80546 9.25465L1.321 9.07861C0.753374 8.88102 0.739759 8.0764 1.31082 7.87255C2.57933 7.42365 3.93364 6.8308 4.897 5.86923C5.8612 4.90646 6.47813 3.60219 6.92359 2.33396ZM7.53026 4.16125C7.10275 5.07654 6.54474 5.99316 5.78154 6.75523C5.02123 7.51417 4.08753 8.05894 3.17301 8.47485C4.09395 8.90255 5.01147 9.46214 5.78154 10.2308C6.54296 10.9914 7.05718 11.8855 7.45025 12.7681C7.86799 11.8317 8.42399 10.9158 9.20188 10.1523C9.96586 9.40272 10.8788 8.8695 11.7842 8.46758C10.8971 8.05848 10.0051 7.51876 9.27316 6.7625L9.26735 6.75523L9.24698 6.73486C8.51685 5.97047 7.96779 5.08829 7.53026 4.16125Z" fill="#2A2B2D"/>
<path d="M12.3458 1.09008C12.4418 0.819667 12.8235 0.821288 12.9205 1.08862L13.0616 1.44651C13.2124 1.79045 13.3981 2.10019 13.6435 2.35724L13.6464 2.3587C13.9766 2.70314 14.4439 2.9129 14.9078 3.07302C15.1791 3.16811 15.1817 3.5576 14.9049 3.64914C14.4393 3.80209 13.9639 4.00729 13.6159 4.34892C13.3525 4.60774 13.1699 4.93195 13.0296 5.28293L12.9001 5.64082C12.812 5.91738 12.4234 5.9289 12.324 5.65391C12.154 5.17627 11.9697 4.7207 11.6227 4.37511C11.2736 4.02777 10.8101 3.80862 10.3425 3.64623C10.0755 3.55164 10.0651 3.16933 10.3396 3.07157C10.8018 2.90792 11.2839 2.69496 11.6227 2.35579C11.9626 2.01515 12.1853 1.54976 12.3458 1.09008Z" fill="#2A2B2D"/>
</svg>
