<svg width="16" height="16" viewBox="0 0 16 16" fill="none" xmlns="http://www.w3.org/2000/svg">
<path d="M7.91377 2.1724H4.21766C2.99288 2.1724 2 3.16528 2 4.39006V11.7823C2 13.0071 2.99288 14 4.21766 14H11.6099C12.8347 14 13.8275 13.0071 13.8275 11.7823L13.8275 8.0862M5.6961 10.3038L8.38563 9.76191C8.5284 9.73314 8.6595 9.66283 8.76246 9.55981L14.7832 3.53576C15.0719 3.24693 15.0717 2.77877 14.7828 2.49019L13.5074 1.21622C13.2186 0.927756 12.7506 0.927953 12.4621 1.21666L6.44072 7.24134C6.33796 7.34415 6.2678 7.47499 6.239 7.61747L5.6961 10.3038Z" stroke="#222325" stroke-width="1.25" stroke-linecap="round" stroke-linejoin="round"/>
</svg>
