<svg width="16" height="16" viewBox="0 0 16 16" fill="none" xmlns="http://www.w3.org/2000/svg">
<path fill-rule="evenodd" clip-rule="evenodd" d="M4 8C4 8.69036 3.44036 9.25 2.75 9.25C2.05964 9.25 1.5 8.69036 1.5 8C1.5 7.30964 2.05964 6.75 2.75 6.75C3.44036 6.75 4 7.30964 4 8ZM9.25 8C9.25 8.69036 8.69036 9.25 8 9.25C7.30964 9.25 6.75 8.69036 6.75 8C6.75 7.30964 7.30964 6.75 8 6.75C8.69036 6.75 9.25 7.30964 9.25 8ZM13.25 9.25C13.9404 9.25 14.5 8.69036 14.5 8C14.5 7.30964 13.9404 6.75 13.25 6.75C12.5596 6.75 12 7.30964 12 8C12 8.69036 12.5596 9.25 13.25 9.25Z" fill="#1A1A1A"/>
</svg>
