<svg width="16" height="16" viewBox="0 0 16 16" fill="none" xmlns="http://www.w3.org/2000/svg">
<path d="M4.44281 6.60691L2.72378 8.32595C2.08176 8.96796 1.71256 9.84152 1.71931 10.7596C1.72606 11.6777 2.08718 12.5566 2.75966 13.2083C3.41133 13.8808 4.2904 14.2419 5.20833 14.2486C6.1472 14.2555 7.00008 13.9071 7.64213 13.2651L9.36117 11.5461M11.5569 9.39231L13.2759 7.67327C13.918 7.03126 14.2872 6.1577 14.2804 5.23962C14.2737 4.32154 13.9125 3.44266 13.2401 2.79095C12.5885 2.13943 11.7096 1.77829 10.7915 1.77155C9.87347 1.7648 8.9998 2.11304 8.35775 2.75507L6.63871 4.47411M5.39305 10.5605L10.5502 5.40334" stroke="#1A1A1A" stroke-width="1.25" stroke-linecap="round" stroke-linejoin="round"/>
</svg>
