<svg width="16" height="16" viewBox="0 0 16 16" fill="none" xmlns="http://www.w3.org/2000/svg">
<path d="M8 0.900391C10.5405 0.900391 12.5996 2.95949 12.5996 5.5V5.90039H13C13.6075 5.90039 14.0996 6.39249 14.0996 7V14C14.0996 14.6075 13.6075 15.0996 13 15.0996H3C2.39249 15.0996 1.90039 14.6075 1.90039 14V7C1.90039 6.39249 2.39249 5.90039 3 5.90039H3.40039V5.5C3.40039 2.95949 5.45949 0.900391 8 0.900391ZM3.09961 13.9004H12.9004V7.09961H3.09961V13.9004ZM8 2.09961C6.12223 2.09961 4.59961 3.62223 4.59961 5.5V5.90039H11.4004V5.5C11.4004 3.62223 9.87777 2.09961 8 2.09961Z" fill="#1A1A1A" stroke="#1A1A1A" stroke-width="0.2"/>
</svg>
