<svg width="16" height="17" viewBox="0 0 16 17" fill="none" xmlns="http://www.w3.org/2000/svg">
<path d="M11.5 0.100586C13.212 0.100586 14.5996 1.4881 14.5996 3.2002V13.2002C14.5996 14.9123 13.212 16.2998 11.5 16.2998H4.5C2.78803 16.2998 1.40039 14.9123 1.40039 13.2002V3.2002C1.40039 1.4881 2.78803 0.100586 4.5 0.100586H11.5ZM4.5 1.2998C3.45221 1.2998 2.59961 2.15264 2.59961 3.2002V13.2002C2.59961 14.2478 3.45221 15.1006 4.5 15.1006H11.5C12.5473 15.1006 13.4004 14.2477 13.4004 13.2002V3.2002C13.4004 2.15265 12.5473 1.2998 11.5 1.2998H4.5ZM9 10.5996C9.3316 10.5996 9.59961 10.8686 9.59961 11.2002C9.59954 11.5317 9.33156 11.7998 9 11.7998H5C4.66844 11.7998 4.40046 11.5317 4.40039 11.2002C4.40039 10.8686 4.6684 10.5996 5 10.5996H9ZM11 7.59961C11.3316 7.59961 11.5996 7.8686 11.5996 8.2002C11.5995 8.53174 11.3316 8.7998 11 8.7998H5C4.66844 8.7998 4.40046 8.53174 4.40039 8.2002C4.40039 7.8686 4.6684 7.59961 5 7.59961H11ZM8 4.59961C8.3316 4.59961 8.59961 4.8686 8.59961 5.2002C8.59954 5.53174 8.33156 5.7998 8 5.7998H5C4.66844 5.7998 4.40046 5.53174 4.40039 5.2002C4.40039 4.8686 4.6684 4.59961 5 4.59961H8Z" fill="#222325" stroke="#222325" stroke-width="0.2"/>
</svg>
