<svg width="16" height="16" viewBox="0 0 16 16" fill="none" xmlns="http://www.w3.org/2000/svg">
<path d="M7.30506 7.61035L9.16842 9.35297M4.51002 14C4.93998 14 5.36028 13.8807 5.71778 13.6573C6.07528 13.4339 6.35392 13.1164 6.51846 12.7449C6.683 12.3734 6.72605 11.9647 6.64217 11.5703C6.55828 11.1759 6.35124 10.8136 6.04721 10.5293C5.74318 10.245 5.35583 10.0514 4.93413 9.97291C4.51243 9.89447 4.07533 9.93473 3.67809 10.0886C3.28086 10.2425 2.94134 10.5031 2.70247 10.8374C2.4636 11.1717 2.3361 11.5648 2.3361 11.9669C2.33621 12.3535 2.17899 12.7257 1.89635 13.0078C1.80926 13.0891 1.74992 13.1927 1.72586 13.3055C1.7018 13.4183 1.71411 13.5353 1.76121 13.6415C1.80831 13.7478 1.88809 13.8386 1.99044 13.9024C2.09279 13.9662 2.21309 14.0002 2.3361 14H4.51002Z" stroke="#222325" stroke-width="1.25" stroke-linecap="round" stroke-linejoin="round"/>
<path d="M6.82316 11.8696L14.0972 4.59585C14.351 4.342 14.4936 3.99772 14.4936 3.63873C14.4936 3.27974 14.351 2.93545 14.0972 2.68161C13.8434 2.42776 13.4991 2.28516 13.1402 2.28516C12.7813 2.28516 12.437 2.42776 12.1832 2.68161L4.90918 9.95661" stroke="#222325" stroke-width="1.25" stroke-linecap="round" stroke-linejoin="round"/>
<path d="M3.38175 4.95887C3.4126 4.98629 3.45373 5 3.50514 5C3.54284 5 3.57712 4.98629 3.60797 4.95887C3.64224 4.93145 3.66281 4.89546 3.66967 4.8509C3.72794 4.54242 3.78792 4.28878 3.84962 4.08997C3.91131 3.88775 3.997 3.72836 4.10668 3.61182C4.21979 3.49529 4.37404 3.40446 4.56941 3.33933C4.76478 3.27421 5.02356 3.21765 5.34576 3.16967C5.44859 3.15596 5.5 3.10111 5.5 3.00514C5.5 2.90231 5.44859 2.84404 5.34576 2.83033C5.02699 2.78577 4.76821 2.73093 4.56941 2.66581C4.37404 2.59726 4.21979 2.50471 4.10668 2.38817C3.99357 2.26821 3.90446 2.11054 3.83933 1.91517C3.77421 1.71637 3.71765 1.46444 3.66967 1.15938C3.6491 1.05313 3.59426 1 3.50514 1C3.40574 1 3.34747 1.05141 3.33033 1.15424C3.27207 1.46615 3.21208 1.72151 3.15039 1.92031C3.08869 2.11568 3.00129 2.27164 2.88817 2.38817C2.77506 2.50471 2.62082 2.59726 2.42545 2.66581C2.23351 2.73093 1.97815 2.78577 1.65938 2.83033C1.55313 2.84404 1.5 2.90231 1.5 3.00514C1.5 3.09769 1.55313 3.15253 1.65938 3.16967C1.97472 3.22108 2.23008 3.27935 2.42545 3.34447C2.62082 3.40617 2.77506 3.497 2.88817 3.61697C3.00471 3.73351 3.09383 3.89117 3.15553 4.08997C3.22065 4.28535 3.27892 4.53728 3.33033 4.84576C3.33376 4.89375 3.3509 4.93145 3.38175 4.95887Z" fill="#222325"/>
<path d="M12.8817 13.9589C12.9126 13.9863 12.9537 14 13.0051 14C13.0428 14 13.0771 13.9863 13.108 13.9589C13.1422 13.9314 13.1628 13.8955 13.1697 13.8509C13.2279 13.5424 13.2879 13.2888 13.3496 13.09C13.4113 12.8877 13.497 12.7284 13.6067 12.6118C13.7198 12.4953 13.874 12.4045 14.0694 12.3393C14.2648 12.2742 14.5236 12.2177 14.8458 12.1697C14.9486 12.156 15 12.1011 15 12.0051C15 11.9023 14.9486 11.844 14.8458 11.8303C14.527 11.7858 14.2682 11.7309 14.0694 11.6658C13.874 11.5973 13.7198 11.5047 13.6067 11.3882C13.4936 11.2682 13.4045 11.1105 13.3393 10.9152C13.2742 10.7164 13.2177 10.4644 13.1697 10.1594C13.1491 10.0531 13.0943 10 13.0051 10C12.9057 10 12.8475 10.0514 12.8303 10.1542C12.7721 10.4662 12.7121 10.7215 12.6504 10.9203C12.5887 11.1157 12.5013 11.2716 12.3882 11.3882C12.2751 11.5047 12.1208 11.5973 11.9255 11.6658C11.7335 11.7309 11.4781 11.7858 11.1594 11.8303C11.0531 11.844 11 11.9023 11 12.0051C11 12.0977 11.0531 12.1525 11.1594 12.1697C11.4747 12.2211 11.7301 12.2793 11.9255 12.3445C12.1208 12.4062 12.2751 12.497 12.3882 12.617C12.5047 12.7335 12.5938 12.8912 12.6555 13.09C12.7207 13.2853 12.7789 13.5373 12.8303 13.8458C12.8338 13.8937 12.8509 13.9314 12.8817 13.9589Z" fill="#222325"/>
</svg>
