<svg width="16" height="16" viewBox="0 0 16 16" fill="none" xmlns="http://www.w3.org/2000/svg">
<path d="M7.46973 2.43164C8.53038 2.43165 9.4836 2.75497 10.3105 3.41113C11.1464 4.06729 11.6851 4.90406 11.9277 5.92871H12.1709C13.2315 5.92874 14.13 6.29703 14.876 7.04297C15.622 7.78899 16 8.68766 16 9.73926C16 10.7999 15.622 11.6993 14.876 12.4453C14.13 13.1911 13.2314 13.5683 12.1709 13.5684H3.83789C3.31674 13.5683 2.82272 13.4693 2.35547 13.2627C1.88813 13.056 1.46557 12.8044 1.12402 12.4629C0.78245 12.1213 0.512406 11.7076 0.305664 11.2402C0.0989939 10.7729 0 10.2603 0 9.74805C7.75426e-05 8.85832 0.278712 8.05824 0.835938 7.36621C1.39323 6.67415 2.10373 6.22508 2.97559 6.02734C3.20928 4.97571 3.7393 4.10363 4.5752 3.43848C5.41115 2.76433 6.3731 2.43164 7.46973 2.43164ZM7.45215 3.72559C6.6072 3.72559 5.86945 4.005 5.24023 4.57129C4.61132 5.12845 4.26066 5.83821 4.17969 6.67383L4.11719 7.05176C4.11719 7.14164 4.07153 7.18652 3.97266 7.18652L3.56836 7.25C2.92126 7.30397 2.38181 7.57346 1.94141 8.0498C1.52812 8.52607 1.3038 9.09213 1.30371 9.74805C1.30371 10.431 1.55492 11.0245 2.04004 11.5098C2.52541 11.9951 3.12803 12.247 3.8291 12.2471H12.1709C12.863 12.247 13.4656 12.0041 13.96 11.5098C14.4541 11.0155 14.7061 10.431 14.7061 9.74805C14.706 9.06509 14.4632 8.47162 13.96 7.98633C13.4656 7.50097 12.872 7.25003 12.1709 7.25H10.9209C10.8313 7.24985 10.7861 7.20399 10.7861 7.11426L10.7236 6.67383C10.6337 5.82909 10.2744 5.11872 9.6543 4.56152C9.03419 4.00434 8.29689 3.72569 7.45215 3.72559Z" fill="#5C5C5C"/>
<path d="M5.75006 8.90955L7.08339 10.2429L9.75006 7.57617" stroke="#5C5C5C" stroke-width="1.25" stroke-linecap="round" stroke-linejoin="round"/>
</svg>
