<svg width="12" height="12" viewBox="0 0 12 12" fill="none" xmlns="http://www.w3.org/2000/svg">
<path d="M5.73654 1.28441C5.84428 1.07186 6.1556 1.07186 6.26334 1.28441L7.65813 4.0358C7.70091 4.1202 7.78362 4.1787 7.87929 4.19223L10.9981 4.63344C11.239 4.66752 11.3353 4.95577 11.1609 5.12121L8.90411 7.26287C8.83488 7.32857 8.80329 7.42322 8.81963 7.51599L9.35239 10.5401C9.39354 10.7737 9.14169 10.9518 8.92619 10.8415L6.13663 9.41374C6.05105 9.36995 5.94882 9.36995 5.86325 9.41374L3.07368 10.8415C2.85819 10.9518 2.60633 10.7737 2.64749 10.5401L3.18025 7.51599C3.19659 7.42322 3.165 7.32857 3.09577 7.26287L0.838964 5.12121C0.664628 4.95577 0.760829 4.66752 1.00176 4.63344L4.12059 4.19223C4.21626 4.1787 4.29897 4.1202 4.34175 4.0358L5.73654 1.28441Z" stroke="#5C5C5C" stroke-width="0.9375" stroke-linejoin="round"/>
</svg>
