<svg width="16" height="16" viewBox="0 0 16 16" fill="none" xmlns="http://www.w3.org/2000/svg">
<path d="M9.58333 3.75C9.58333 3.56878 9.73224 3.42578 9.90869 3.38448C10.4327 3.26182 10.8451 2.84935 10.9678 2.32535C11.0091 2.14891 11.1521 2 11.3333 2C11.5146 2 11.6575 2.14891 11.6989 2.32535C11.8215 2.84935 12.234 3.26182 12.758 3.38448C12.9344 3.42578 13.0833 3.56878 13.0833 3.75C13.0833 3.93122 12.9344 4.07422 12.758 4.11552C12.234 4.23818 11.8215 4.65065 11.6989 5.17465C11.6575 5.35109 11.5146 5.5 11.3333 5.5C11.1521 5.5 11.0091 5.35109 10.9678 5.17465C10.8451 4.65065 10.4327 4.23818 9.90869 4.11552C9.73224 4.07422 9.58333 3.93122 9.58333 3.75ZM2 7.83333C2 7.51117 2.26313 7.2551 2.58089 7.20202C4.04849 6.95687 5.20687 5.79849 5.45202 4.33089C5.5051 4.01313 5.76117 3.75 6.08333 3.75C6.4055 3.75 6.66157 4.01313 6.71465 4.33089C6.9598 5.79849 8.11818 6.95687 9.58578 7.20202C9.90354 7.2551 10.1667 7.51117 10.1667 7.83333C10.1667 8.1555 9.90354 8.41157 9.58578 8.46465C8.11818 8.7098 6.9598 9.86818 6.71465 11.3358C6.66157 11.6535 6.4055 11.9167 6.08333 11.9167C5.76117 11.9167 5.5051 11.6535 5.45202 11.3358C5.20687 9.86818 4.04849 8.7098 2.58089 8.46465C2.26313 8.41157 2 8.1555 2 7.83333ZM11.9167 9C11.675 9 11.4844 9.19854 11.4293 9.43381C11.2657 10.1325 10.7158 10.6824 10.0171 10.846C9.78187 10.901 9.58333 11.0917 9.58333 11.3333C9.58333 11.575 9.78187 11.7656 10.0171 11.8207C10.7158 11.9843 11.2657 12.5342 11.4293 13.2329C11.4844 13.4681 11.675 13.6667 11.9167 13.6667C12.1583 13.6667 12.349 13.4681 12.404 13.2329C12.5676 12.5342 13.1175 11.9843 13.8162 11.8207C14.0515 11.7656 14.25 11.575 14.25 11.3333C14.25 11.0917 14.0515 10.901 13.8162 10.846C13.1175 10.6824 12.5676 10.1325 12.404 9.43381C12.349 9.19854 12.1583 9 11.9167 9Z" fill="url(#paint0_linear_3403_41697)"/>
<defs>
<linearGradient id="paint0_linear_3403_41697" x1="2" y1="7.83333" x2="14.25" y2="7.83333" gradientUnits="userSpaceOnUse">
<stop stop-color="#2057B1"/>
<stop offset="1" stop-color="#9053C2"/>
</linearGradient>
</defs>
</svg>
