<svg width="18" height="16" viewBox="0 0 18 16" fill="none" xmlns="http://www.w3.org/2000/svg">
<path d="M11.625 6.16678L15.7986 4.08044C15.9383 4.01062 16.0935 3.97767 16.2496 3.98469C16.4056 3.99172 16.5573 4.0385 16.6901 4.1206C16.823 4.20269 16.9327 4.31738 17.0088 4.45377C17.0849 4.59017 17.1249 4.74375 17.125 4.89994V11.1003C17.1249 11.2565 17.0849 11.41 17.0088 11.5464C16.9327 11.6828 16.823 11.7975 16.6901 11.8796C16.5573 11.9617 16.4056 12.0085 16.2496 12.0155C16.0935 12.0226 15.9383 11.9896 15.7986 11.9198L11.625 9.83344V6.16678Z" stroke="#1A1A1A" stroke-width="1.25" stroke-linecap="round" stroke-linejoin="round"/>
<path d="M0.625 4.33333C0.625 3.8471 0.818154 3.38079 1.16197 3.03697C1.50579 2.69315 1.9721 2.5 2.45833 2.5H9.79167C10.2779 2.5 10.7442 2.69315 11.088 3.03697C11.4318 3.38079 11.625 3.8471 11.625 4.33333V11.6667C11.625 12.1529 11.4318 12.6192 11.088 12.963C10.7442 13.3068 10.2779 13.5 9.79167 13.5H2.45833C1.9721 13.5 1.50579 13.3068 1.16197 12.963C0.818154 12.6192 0.625 12.1529 0.625 11.6667V4.33333Z" stroke="#1A1A1A" stroke-width="1.25" stroke-linecap="round" stroke-linejoin="round"/>
</svg>
