<svg width="16" height="16" viewBox="0 0 16 16" fill="none" xmlns="http://www.w3.org/2000/svg">
<g clip-path="url(#clip0_3342_67987)">
<path d="M3.5 10L2.80321 10.7134C2.62056 10.896 2.52924 10.9874 2.45982 11.0926C2.39823 11.186 2.34955 11.2873 2.31509 11.3938C2.27625 11.5138 2.26199 11.6421 2.23346 11.8988L2 14L4.10117 13.7665C4.35788 13.738 4.48625 13.7237 4.60622 13.6849C4.71266 13.6505 4.81395 13.6018 4.90735 13.5402C5.01262 13.4708 5.10396 13.3794 5.28659 13.1968L6 12.5M10 3.5L11.0023 2.51433C11.6881 1.82856 12.7999 1.82856 13.4857 2.51433C14.1714 3.2001 14.1714 4.31195 13.4857 4.99772L12.5 6" stroke="#222325" stroke-width="1.33" stroke-linecap="round" stroke-linejoin="round"/>
<path d="M8.66697 11.3321L9.66697 10.3321M6.66697 9.33211L7.66697 8.33211M4.66697 7.33211L5.66697 6.33211M1.71073 4.28829L4.28982 1.70921C4.42182 1.5772 4.48783 1.5112 4.56394 1.48647C4.63088 1.46471 4.703 1.46471 4.76995 1.48647C4.84606 1.5112 4.91206 1.5772 5.04406 1.7092L14.2898 10.955C14.4218 11.087 14.4878 11.153 14.5126 11.2291C14.5343 11.296 14.5343 11.3681 14.5126 11.4351C14.4878 11.5112 14.4218 11.5772 14.2898 11.7092L11.7107 14.2883C11.5787 14.4203 11.5127 14.4863 11.4366 14.511C11.3697 14.5328 11.2976 14.5328 11.2306 14.511C11.1545 14.4863 11.0885 14.4203 10.9565 14.2883L1.71073 5.04254C1.57873 4.91053 1.51272 4.84453 1.48799 4.76842C1.46624 4.70147 1.46624 4.62936 1.48799 4.56241C1.51272 4.4863 1.57873 4.4203 1.71073 4.28829Z" stroke="#222325" stroke-width="1.25" stroke-linecap="round" stroke-linejoin="round"/>
</g>
<defs>
<clipPath id="clip0_3342_67987">
<rect width="16" height="16" fill="white"/>
</clipPath>
</defs>
</svg>
