<svg width="166" height="36" viewBox="0 0 166 36" fill="none" xmlns="http://www.w3.org/2000/svg">
<g clip-path="url(#clip0_3117_86999)">
<path d="M21.4082 1.69775C27.2514 1.6978 31.9883 6.43467 31.9883 12.2778V22.8579C31.9882 28.701 27.2513 33.4379 21.4082 33.438H10.8281C4.98496 33.438 0.248096 28.7011 0.248047 22.8579V12.2778C0.248047 6.43464 4.98493 1.69775 10.8281 1.69775H21.4082ZM10.8281 6.98779C7.90656 6.98779 5.53814 9.35628 5.53809 12.2778V22.8579C5.53809 25.7795 7.90653 28.1479 10.8281 28.1479H21.4082C24.3297 28.1478 26.6982 25.7794 26.6982 22.8579V12.2778C26.6982 9.35636 24.3297 6.98793 21.4082 6.98779H10.8281Z" fill="#0D6BDE"/>
<mask id="mask0_3117_86999" style="mask-type:alpha" maskUnits="userSpaceOnUse" x="0" y="1" width="32" height="33">
<path d="M21.4082 1.69775C27.2514 1.6978 31.9883 6.43467 31.9883 12.2778V22.8579C31.9882 28.701 27.2513 33.4379 21.4082 33.438H10.8281C4.98496 33.438 0.248096 28.7011 0.248047 22.8579V12.2778C0.248047 6.43464 4.98493 1.69775 10.8281 1.69775H21.4082ZM10.8281 6.98779C7.90656 6.98779 5.53814 9.35628 5.53809 12.2778V22.8579C5.53809 25.7795 7.90653 28.1479 10.8281 28.1479H21.4082C24.3297 28.1478 26.6982 25.7794 26.6982 22.8579V12.2778C26.6982 9.35636 24.3297 6.98793 21.4082 6.98779H10.8281Z" fill="#0D6BDE"/>
</mask>
<g mask="url(#mask0_3117_86999)">
<g filter="url(#filter0_f_3117_86999)" style="mix-blend-mode:hard-light">
<path d="M-22.5467 11.8812L9.80317 20.6155C10.409 20.7791 10.8823 21.2524 11.0459 21.8583L19.7802 54.2081C20.1564 55.6014 18.885 56.8727 17.4918 56.4966L-14.858 47.7622C-15.4639 47.5986 -15.9372 47.1254 -16.1008 46.5195L-24.8351 14.1697C-25.2113 12.7764 -23.9399 11.505 -22.5467 11.8812Z" fill="#FF0C68"/>
</g>
<g filter="url(#filter1_f_3117_86999)" style="mix-blend-mode:hard-light">
<path d="M51.8769 52.0041L19.527 43.2697C18.9212 43.1061 18.4479 42.6329 18.2843 42.027L9.54996 9.67715C9.17379 8.28388 10.4452 7.01251 11.8384 7.38869L44.1882 16.123C44.7941 16.2866 45.2674 16.7599 45.431 17.3658L54.1653 49.7156C54.5415 51.1089 53.2701 52.3802 51.8769 52.0041Z" fill="#FF0C68"/>
</g>
<g filter="url(#filter2_f_3117_86999)" style="mix-blend-mode:plus-lighter">
<path d="M-0.098463 -56.115L52.5861 -41.8903C53.192 -41.7267 53.6653 -41.2535 53.8289 -40.6476L68.0535 12.037C68.6592 14.2804 66.6121 16.3274 64.3688 15.7217L11.6842 1.49707C11.0783 1.33349 10.6051 0.860212 10.4415 0.254333L-3.78319 -52.4302C-4.38889 -54.6736 -2.34182 -56.7207 -0.098463 -56.115Z" fill="#26C532"/>
</g>
<g filter="url(#filter3_f_3117_86999)">
<path d="M11.792 11.7859L44.8063 20.6996C45.4122 20.8632 45.8855 21.3365 46.049 21.9423L54.9628 54.9566C55.3464 56.3777 54.0497 57.6744 52.6287 57.2907L19.6144 48.377C19.0086 48.2134 18.5353 47.7401 18.3717 47.1342L9.45795 14.12C9.07427 12.6989 10.371 11.4022 11.792 11.7859Z" fill="#0D6BDE"/>
</g>
<g filter="url(#filter4_f_3117_86999)">
<path d="M27.5981 2.75837L15.1867 2.71768C14.5608 2.71563 13.9829 2.38199 13.6682 1.84102L7.4273 -8.88723C7.14516 -9.37222 7.49385 -9.97617 8.05494 -9.97433L20.4663 -9.93363C21.0922 -9.93158 21.6701 -9.59795 21.9848 -9.05698L28.2257 1.67126C28.5078 2.15626 28.1591 2.76021 27.5981 2.75837Z" fill="#26C532"/>
</g>
</g>
<path d="M17.0387 21.157C17.3477 19.837 18.3867 18.798 19.7067 18.489C20.1511 18.3849 20.5262 18.0247 20.5262 17.5682C20.5262 17.1117 20.1511 16.7515 19.7067 16.6474C18.3867 16.3385 17.3477 15.2994 17.0387 13.9795C16.9346 13.535 16.5744 13.1599 16.1179 13.1599C15.6614 13.1599 15.3012 13.535 15.1971 13.9795C14.8881 15.2994 13.8491 16.3385 12.5291 16.6474C12.0847 16.7515 11.7096 17.1117 11.7096 17.5682C11.7096 18.0247 12.0847 18.3849 12.5291 18.489C13.8491 18.798 14.8881 19.837 15.1971 21.157C15.3012 21.6015 15.6614 21.9766 16.1179 21.9766C16.5744 21.9766 16.9346 21.6015 17.0387 21.157Z" fill="url(#paint0_linear_3117_86999)"/>
<path d="M49.6448 14.4968H40.4693C39.8255 14.4968 39.2503 14.1125 39.004 13.5177C38.7576 12.923 38.8926 12.2444 39.3478 11.7893L45.7034 5.43375H41.1482C39.8969 5.43375 38.8824 4.41933 38.8824 3.16798H47.3443C47.9881 3.16798 48.5632 3.55221 48.8096 4.14697C49.056 4.74174 48.9211 5.42014 48.4659 5.87551L42.1103 12.2311H47.3791C48.6304 12.2311 49.6448 13.2455 49.6448 14.4968ZM90.2021 7.4163C90.2021 4.98004 88.2201 2.99805 85.7839 2.99805C84.4807 2.99805 83.3079 3.56548 82.4985 4.46587C81.6891 3.56548 80.5163 2.99805 79.2131 2.99805C76.7769 2.99805 74.7949 4.98004 74.7949 7.4163V14.4968C76.0462 14.4968 77.0607 13.4824 77.0607 12.2311V7.4163C77.0607 6.22942 78.0263 5.26382 79.2131 5.26382C80.4 5.26382 81.3656 6.22942 81.3656 7.4163V12.2311C81.3656 13.4824 82.38 14.4968 83.6314 14.4968V7.4163C83.6314 6.22942 84.597 5.26382 85.7839 5.26382C86.9707 5.26382 87.9363 6.22942 87.9363 7.4163V12.2311C87.9363 13.4824 88.9508 14.4968 90.2021 14.4968V7.4163ZM73.662 8.8324C73.662 12.0546 71.0499 14.6668 67.8276 14.6668C64.6054 14.6668 61.9933 12.0546 61.9933 8.8324C61.9933 5.61017 64.6054 2.99805 67.8276 2.99805C71.0499 2.99805 73.662 5.61017 73.662 8.8324ZM71.3962 8.8324C71.3962 6.86153 69.7985 5.26382 67.8276 5.26382C65.8568 5.26382 64.2591 6.86153 64.2591 8.8324C64.2591 10.8033 65.8568 12.401 67.8276 12.401C69.7985 12.401 71.3962 10.8033 71.3962 8.8324ZM61.087 8.8324C61.087 12.0546 58.4749 14.6668 55.2526 14.6668C52.0304 14.6668 49.4183 12.0546 49.4183 8.8324C49.4183 5.61017 52.0304 2.99805 55.2526 2.99805C58.4749 2.99805 61.087 5.61017 61.087 8.8324ZM58.8212 8.8324C58.8212 6.86153 57.2235 5.26382 55.2526 5.26382C53.2818 5.26382 51.684 6.86153 51.684 8.8324C51.684 10.8033 53.2818 12.401 55.2526 12.401C57.2235 12.401 58.8212 10.8033 58.8212 8.8324Z" fill="#0B5CFF"/>
<path d="M43.5872 20.2479C44.2118 20.2479 44.8104 20.2844 45.383 20.3572C45.966 20.4301 46.4761 20.5915 46.9134 20.8413C47.361 21.0912 47.7202 21.4504 47.9909 21.9188C48.2616 22.3873 48.3969 23.0172 48.3969 23.8084C48.3969 24.5267 48.272 25.1097 48.0221 25.5574C47.7723 26.005 47.4339 26.359 47.0071 26.6192C46.5802 26.8795 46.0753 27.0565 45.4923 27.1502C44.9093 27.2439 44.2847 27.2907 43.6184 27.2907H41.8382V31.5695H39.855V20.2479H43.5872ZM41.8382 21.8408V25.6667H43.6809C44.0557 25.6667 44.4044 25.6458 44.7272 25.6042C45.0499 25.5626 45.331 25.4793 45.5704 25.3543C45.8099 25.2294 45.9973 25.0472 46.1326 24.8078C46.2679 24.5579 46.3356 24.23 46.3356 23.824C46.3356 23.3659 46.2575 23.0067 46.1014 22.7465C45.9452 22.4758 45.737 22.278 45.4767 22.1531C45.2269 22.0177 44.9354 21.9345 44.6022 21.9032C44.2691 21.8616 43.9307 21.8408 43.5872 21.8408H41.8382Z" fill="#0D213E"/>
<path d="M54.0208 25.0576C53.7085 25.0264 53.4118 25.0108 53.1307 25.0108C52.8392 25.0108 52.579 25.0472 52.3499 25.1201C52.1209 25.1826 51.9283 25.2971 51.7721 25.4637C51.616 25.6198 51.4963 25.8384 51.413 26.1195C51.3297 26.4006 51.288 26.7494 51.288 27.1658V31.5695H49.4298V23.1681H51.2568V24.6672C51.4859 24.1988 51.793 23.8344 52.1782 23.5741C52.5738 23.3034 53.0266 23.1629 53.5367 23.1525C53.6096 23.1525 53.6877 23.1577 53.771 23.1681C53.8647 23.1681 53.948 23.1733 54.0208 23.1837V25.0576Z" fill="#0D213E"/>
<path d="M58.5404 30.2578C58.8528 30.2578 59.139 30.2005 59.3993 30.086C59.6596 29.961 59.8886 29.7841 60.0864 29.555C60.2842 29.3156 60.4352 29.0189 60.5393 28.6649C60.6538 28.3006 60.7111 27.8737 60.7111 27.3844C60.7111 26.9055 60.6538 26.4839 60.5393 26.1195C60.4352 25.7552 60.2842 25.4532 60.0864 25.2138C59.8886 24.9744 59.6596 24.7974 59.3993 24.6829C59.139 24.5579 58.8528 24.4955 58.5404 24.4955C58.2281 24.4955 57.9418 24.5579 57.6816 24.6829C57.4213 24.7974 57.1923 24.9744 56.9945 25.2138C56.7967 25.4532 56.6405 25.7552 56.526 26.1195C56.4219 26.4839 56.3698 26.9055 56.3698 27.3844C56.3698 27.8737 56.4219 28.3006 56.526 28.6649C56.6405 29.0189 56.7967 29.3156 56.9945 29.555C57.1923 29.7841 57.4213 29.961 57.6816 30.086C57.9418 30.2005 58.2281 30.2578 58.5404 30.2578ZM58.5404 22.9807C59.0714 22.9807 59.5815 23.0692 60.0708 23.2462C60.5601 23.4232 60.9921 23.6938 61.3669 24.0582C61.7521 24.4122 62.0592 24.865 62.2883 25.4168C62.5173 25.9686 62.6318 26.6244 62.6318 27.3844C62.6318 28.1444 62.5173 28.8003 62.2883 29.352C62.0592 29.9038 61.7521 30.3619 61.3669 30.7262C60.9921 31.0802 60.5601 31.3457 60.0708 31.5226C59.5815 31.6892 59.0714 31.7725 58.5404 31.7725C58.0095 31.7725 57.4994 31.6892 57.0101 31.5226C56.5208 31.3457 56.0835 31.0802 55.6983 30.7262C55.3236 30.3619 55.0216 29.9038 54.7926 29.352C54.5636 28.8003 54.4491 28.1444 54.4491 27.3844C54.4491 26.6244 54.5636 25.9686 54.7926 25.4168C55.0216 24.865 55.3236 24.4122 55.6983 24.0582C56.0835 23.6938 56.5208 23.4232 57.0101 23.2462C57.4994 23.0692 58.0095 22.9807 58.5404 22.9807Z" fill="#0D213E"/>
<path d="M69.7807 20.2479H71.639V31.5695H69.7807V30.4608C69.5309 30.8772 69.1925 31.1999 68.7657 31.4289C68.3389 31.658 67.8444 31.7725 67.2822 31.7725C66.7721 31.7725 66.2932 31.6736 65.8455 31.4758C65.4083 31.2676 65.0283 30.9709 64.7056 30.5857C64.3828 30.2005 64.1278 29.7372 63.9404 29.1959C63.7634 28.6545 63.6749 28.0455 63.6749 27.3688C63.6749 26.7025 63.7634 26.0987 63.9404 25.5574C64.1278 25.016 64.3828 24.5527 64.7056 24.1675C65.0283 23.7823 65.4083 23.4908 65.8455 23.293C66.2932 23.0848 66.7721 22.9807 67.2822 22.9807C67.8444 22.9807 68.3389 23.0952 68.7657 23.3243C69.1925 23.5533 69.5309 23.876 69.7807 24.2925V20.2479ZM69.8588 27.3688C69.8588 26.8899 69.8016 26.4683 69.6871 26.1039C69.5725 25.7395 69.4164 25.4428 69.2186 25.2138C69.0312 24.9744 68.8021 24.7974 68.5315 24.6829C68.2712 24.5579 67.9901 24.4955 67.6882 24.4955C67.0323 24.4955 66.5222 24.7557 66.1578 25.2763C65.7935 25.7864 65.6113 26.4839 65.6113 27.3688C65.6113 28.2641 65.7935 28.972 66.1578 29.4926C66.5222 30.0027 67.0323 30.2578 67.6882 30.2578C67.9901 30.2578 68.2712 30.2005 68.5315 30.086C68.8021 29.961 69.0312 29.7789 69.2186 29.5394C69.4164 29.3 69.5725 29.0033 69.6871 28.6493C69.8016 28.2849 69.8588 27.8581 69.8588 27.3688Z" fill="#0D213E"/>
<path d="M78.9227 30.4139C78.6832 30.8512 78.3501 31.1895 77.9232 31.4289C77.5068 31.658 77.0123 31.7725 76.4397 31.7725C75.94 31.7725 75.5132 31.6944 75.1592 31.5383C74.8053 31.3821 74.5138 31.1583 74.2847 30.8668C74.0557 30.5753 73.8891 30.2265 73.785 29.8205C73.6809 29.4145 73.6289 28.9616 73.6289 28.4619V23.1681H75.4872V28.0091C75.4872 28.2901 75.5028 28.566 75.534 28.8367C75.5652 29.1074 75.6329 29.352 75.737 29.5706C75.8411 29.7789 75.9973 29.9454 76.2055 30.0704C76.4137 30.1953 76.6896 30.2578 77.0331 30.2578C77.3767 30.2578 77.6682 30.1953 77.9076 30.0704C78.1575 29.935 78.3553 29.7528 78.501 29.5238C78.6468 29.2948 78.7509 29.0189 78.8134 28.6962C78.8862 28.3734 78.9227 28.0247 78.9227 27.6499V23.1681H80.781V31.5695H78.9227V30.4139Z" fill="#0D213E"/>
<path d="M86.3865 22.9807C86.855 22.9807 87.2974 23.0536 87.7138 23.1993C88.1303 23.3451 88.4998 23.5533 88.8226 23.824C89.1557 24.0842 89.4316 24.4018 89.6502 24.7766C89.8688 25.1513 90.0198 25.573 90.1031 26.0414H88.2916C88.2083 25.5938 88.0001 25.2294 87.667 24.9483C87.3443 24.6672 86.9018 24.5267 86.3396 24.5267C86.0481 24.5267 85.7723 24.584 85.512 24.6985C85.2621 24.8026 85.0383 24.9744 84.8405 25.2138C84.6531 25.4428 84.5022 25.7343 84.3876 26.0883C84.2835 26.4423 84.2315 26.8691 84.2315 27.3688C84.2315 27.8685 84.2835 28.3006 84.3876 28.6649C84.5022 29.0189 84.6531 29.3156 84.8405 29.555C85.0383 29.7841 85.2621 29.9558 85.512 30.0704C85.7723 30.1745 86.0481 30.2265 86.3396 30.2265C86.8081 30.2265 87.2297 30.112 87.6045 29.883C87.9897 29.6539 88.2396 29.2583 88.3541 28.6962H90.1655C90.0718 29.1855 89.9053 29.6227 89.6658 30.0079C89.4264 30.3931 89.1349 30.7158 88.7913 30.9761C88.4478 31.2364 88.0626 31.4342 87.6358 31.5695C87.2089 31.7048 86.7665 31.7725 86.3084 31.7725C85.6838 31.7725 85.1216 31.6632 84.6219 31.4446C84.1326 31.2155 83.7162 30.9084 83.3726 30.5232C83.0291 30.1276 82.7636 29.6643 82.5762 29.1334C82.3992 28.5921 82.3107 28.0091 82.3107 27.3844C82.3107 26.7598 82.3992 26.182 82.5762 25.651C82.7636 25.1097 83.0343 24.6412 83.3882 24.2456C83.7422 23.85 84.169 23.5429 84.6687 23.3243C85.1684 23.0952 85.741 22.9807 86.3865 22.9807Z" fill="#0D213E"/>
<path d="M91.8613 20.9506H93.7196V23.1681H95.4061V24.5111H93.7196V29.0866C93.7196 29.5134 93.7873 29.7997 93.9226 29.9454C94.058 30.0808 94.3234 30.1484 94.719 30.1484H95.3905V31.5695H94.0163C93.5687 31.5695 93.2043 31.5383 92.9232 31.4758C92.6421 31.4029 92.4235 31.2832 92.2673 31.1166C92.1112 30.9501 92.0019 30.7262 91.9394 30.4451C91.8874 30.1536 91.8613 29.7945 91.8613 29.3676V24.5111H90.6121V23.1681H91.8613V20.9506Z" fill="#0D213E"/>
<path d="M98.7611 20.2479V22.1218H96.9028V20.2479H98.7611ZM98.7611 23.1681V31.5695H96.9028V23.1681H98.7611Z" fill="#0D213E"/>
<path d="M103.788 29.1646L105.709 23.1681H107.646L104.616 31.5695H102.867L99.8063 23.1681H101.852L103.788 29.1646Z" fill="#0D213E"/>
<path d="M110.549 20.2479V22.1218H108.691V20.2479H110.549ZM110.549 23.1681V31.5695H108.691V23.1681H110.549Z" fill="#0D213E"/>
<path d="M112.906 20.9506H114.765V23.1681H116.451V24.5111H114.765V29.0866C114.765 29.5134 114.832 29.7997 114.968 29.9454C115.103 30.0808 115.368 30.1484 115.764 30.1484H116.435V31.5695H115.061C114.614 31.5695 114.249 31.5383 113.968 31.4758C113.687 31.4029 113.468 31.2832 113.312 31.1166C113.156 30.9501 113.047 30.7262 112.984 30.4451C112.932 30.1536 112.906 29.7945 112.906 29.3676V24.5111H111.657V23.1681H112.906V20.9506Z" fill="#0D213E"/>
<path d="M117.467 34.3023V32.8812H118.17C118.368 32.8812 118.54 32.8708 118.685 32.85C118.842 32.8396 118.977 32.7927 119.091 32.7095C119.216 32.6366 119.326 32.5221 119.419 32.3659C119.513 32.2097 119.607 31.9963 119.7 31.7257L119.794 31.5226L116.749 23.1681H118.779L120.684 29.1959L122.589 23.1681H124.495L121.543 31.5539C121.345 32.0952 121.153 32.5429 120.965 32.8968C120.788 33.2508 120.58 33.5319 120.341 33.7401C120.101 33.9483 119.82 34.0941 119.497 34.1774C119.175 34.2606 118.779 34.3023 118.311 34.3023H117.467Z" fill="#0D213E"/>
<path d="M132.077 26.4318C131.629 26.3381 131.208 26.2132 130.812 26.0571C130.417 25.8905 130.068 25.6771 129.766 25.4168C129.474 25.1565 129.24 24.8494 129.063 24.4955C128.897 24.1311 128.813 23.7095 128.813 23.2306C128.813 22.6996 128.938 22.2364 129.188 21.8408C129.438 21.4452 129.766 21.1172 130.172 20.857C130.578 20.5863 131.036 20.3833 131.546 20.2479C132.056 20.1126 132.572 20.0449 133.092 20.0449C133.654 20.0449 134.18 20.1126 134.669 20.2479C135.159 20.3729 135.596 20.5759 135.981 20.857C136.366 21.1276 136.689 21.4764 136.949 21.9032C137.22 22.3196 137.412 22.8246 137.527 23.418H135.606C135.523 23.0744 135.393 22.7933 135.216 22.5747C135.039 22.3457 134.831 22.1687 134.591 22.0438C134.352 21.9084 134.091 21.8147 133.81 21.7627C133.54 21.7002 133.264 21.669 132.983 21.669C132.764 21.669 132.525 21.695 132.264 21.7471C132.015 21.7991 131.78 21.8876 131.562 22.0125C131.353 22.127 131.177 22.278 131.031 22.4654C130.885 22.6528 130.812 22.887 130.812 23.1681C130.812 23.6054 130.968 23.9437 131.281 24.1831C131.603 24.4122 132.009 24.5735 132.499 24.6672L133.888 24.9327C134.388 25.0264 134.867 25.1513 135.325 25.3075C135.794 25.4532 136.205 25.6563 136.559 25.9165C136.923 26.1768 137.215 26.4995 137.433 26.8847C137.652 27.2699 137.761 27.7488 137.761 28.3214C137.761 28.894 137.631 29.3989 137.371 29.8361C137.111 30.263 136.767 30.6221 136.34 30.9136C135.924 31.1947 135.445 31.4081 134.904 31.5539C134.373 31.6996 133.826 31.7725 133.264 31.7725C132.587 31.7725 131.968 31.684 131.406 31.507C130.854 31.33 130.37 31.075 129.953 30.7418C129.547 30.3983 129.219 29.9819 128.969 29.4926C128.72 29.0033 128.563 28.4463 128.501 27.8217H130.453C130.63 28.6025 130.963 29.1855 131.452 29.5706C131.942 29.9558 132.577 30.1484 133.358 30.1484C133.691 30.1484 134.003 30.112 134.294 30.0391C134.596 29.9663 134.857 29.8569 135.075 29.7112C135.294 29.5654 135.466 29.3885 135.591 29.1803C135.716 28.9616 135.778 28.717 135.778 28.4463C135.778 28.1548 135.705 27.9102 135.559 27.7124C135.424 27.5146 135.242 27.348 135.013 27.2126C134.794 27.0773 134.544 26.9732 134.263 26.9003C133.993 26.817 133.722 26.7494 133.451 26.6973L132.077 26.4318Z" fill="#0D213E"/>
<path d="M144.36 30.4139C144.121 30.8512 143.788 31.1895 143.361 31.4289C142.944 31.658 142.45 31.7725 141.877 31.7725C141.378 31.7725 140.951 31.6944 140.597 31.5383C140.243 31.3821 139.951 31.1583 139.722 30.8668C139.493 30.5753 139.327 30.2265 139.223 29.8205C139.118 29.4145 139.066 28.9616 139.066 28.4619V23.1681H140.925V28.0091C140.925 28.2901 140.94 28.566 140.972 28.8367C141.003 29.1074 141.07 29.352 141.175 29.5706C141.279 29.7789 141.435 29.9454 141.643 30.0704C141.851 30.1953 142.127 30.2578 142.471 30.2578C142.814 30.2578 143.106 30.1953 143.345 30.0704C143.595 29.935 143.793 29.7528 143.939 29.5238C144.084 29.2948 144.188 29.0189 144.251 28.6962C144.324 28.3734 144.36 28.0247 144.36 27.6499V23.1681H146.218V31.5695H144.36V30.4139Z" fill="#0D213E"/>
<path d="M150.169 20.2479V22.1218H148.31V20.2479H150.169ZM150.169 23.1681V31.5695H148.31V23.1681H150.169Z" fill="#0D213E"/>
<path d="M152.526 20.9506H154.384V23.1681H156.07V24.5111H154.384V29.0866C154.384 29.5134 154.452 29.7997 154.587 29.9454C154.722 30.0808 154.988 30.1484 155.383 30.1484H156.055V31.5695H154.681C154.233 31.5695 153.869 31.5383 153.588 31.4758C153.306 31.4029 153.088 31.2832 152.932 31.1166C152.775 30.9501 152.666 30.7262 152.604 30.4451C152.552 30.1536 152.526 29.7945 152.526 29.3676V24.5111H151.276V23.1681H152.526V20.9506Z" fill="#0D213E"/>
<path d="M161.206 31.7725C160.519 31.7725 159.91 31.6528 159.379 31.4133C158.858 31.1739 158.421 30.8512 158.067 30.4451C157.723 30.0391 157.458 29.5654 157.27 29.0241C157.093 28.4827 157.005 27.9102 157.005 27.3063C157.005 26.6713 157.104 26.0935 157.302 25.573C157.499 25.042 157.775 24.584 158.129 24.1988C158.483 23.8136 158.91 23.5169 159.41 23.3087C159.91 23.09 160.466 22.9807 161.081 22.9807C161.737 22.9807 162.32 23.1056 162.83 23.3555C163.34 23.6054 163.767 23.9489 164.11 24.3862C164.454 24.8234 164.709 25.3439 164.875 25.9477C165.042 26.5412 165.104 27.1918 165.063 27.8997H158.894C158.905 28.2329 158.967 28.5452 159.082 28.8367C159.207 29.1178 159.368 29.3624 159.566 29.5706C159.764 29.7789 159.993 29.9402 160.253 30.0547C160.524 30.1693 160.815 30.2265 161.128 30.2265C162.137 30.2265 162.809 29.8361 163.142 29.0553H164.969C164.875 29.3885 164.73 29.7216 164.532 30.0547C164.334 30.3775 164.079 30.669 163.767 30.9292C163.465 31.1791 163.1 31.3821 162.674 31.5383C162.247 31.6944 161.757 31.7725 161.206 31.7725ZM161.081 24.433C160.82 24.433 160.56 24.4746 160.3 24.5579C160.05 24.6412 159.821 24.7713 159.613 24.9483C159.415 25.1149 159.248 25.3335 159.113 25.6042C158.978 25.8645 158.905 26.1768 158.894 26.5412H163.173C163.163 26.2184 163.1 25.9269 162.986 25.6667C162.871 25.396 162.72 25.1722 162.533 24.9952C162.346 24.8182 162.127 24.6829 161.877 24.5892C161.627 24.4851 161.362 24.433 161.081 24.433Z" fill="#0D213E"/>
</g>
<defs>
<filter id="filter0_f_3117_86999" x="-35.482" y="1.23442" width="65.9091" height="65.9091" filterUnits="userSpaceOnUse" color-interpolation-filters="sRGB">
<feFlood flood-opacity="0" result="BackgroundImageFix"/>
<feBlend mode="normal" in="SourceGraphic" in2="BackgroundImageFix" result="shape"/>
<feGaussianBlur stdDeviation="5.29002" result="effect1_foregroundBlur_3117_86999"/>
</filter>
<filter id="filter1_f_3117_86999" x="-1.09688" y="-3.25826" width="65.9091" height="65.9091" filterUnits="userSpaceOnUse" color-interpolation-filters="sRGB">
<feFlood flood-opacity="0" result="BackgroundImageFix"/>
<feBlend mode="normal" in="SourceGraphic" in2="BackgroundImageFix" result="shape"/>
<feGaussianBlur stdDeviation="5.29002" result="effect1_foregroundBlur_3117_86999"/>
</filter>
<filter id="filter2_f_3117_86999" x="-14.471" y="-66.8027" width="93.2123" height="93.2123" filterUnits="userSpaceOnUse" color-interpolation-filters="sRGB">
<feFlood flood-opacity="0" result="BackgroundImageFix"/>
<feBlend mode="normal" in="SourceGraphic" in2="BackgroundImageFix" result="shape"/>
<feGaussianBlur stdDeviation="5.29002" result="effect1_foregroundBlur_3117_86999"/>
</filter>
<filter id="filter3_f_3117_86999" x="-1.19039" y="1.13774" width="66.8014" height="66.8012" filterUnits="userSpaceOnUse" color-interpolation-filters="sRGB">
<feFlood flood-opacity="0" result="BackgroundImageFix"/>
<feBlend mode="normal" in="SourceGraphic" in2="BackgroundImageFix" result="shape"/>
<feGaussianBlur stdDeviation="5.29002" result="effect1_foregroundBlur_3117_86999"/>
</filter>
<filter id="filter4_f_3117_86999" x="-3.25264" y="-20.5542" width="42.1584" height="33.8925" filterUnits="userSpaceOnUse" color-interpolation-filters="sRGB">
<feFlood flood-opacity="0" result="BackgroundImageFix"/>
<feBlend mode="normal" in="SourceGraphic" in2="BackgroundImageFix" result="shape"/>
<feGaussianBlur stdDeviation="5.29002" result="effect1_foregroundBlur_3117_86999"/>
</filter>
<linearGradient id="paint0_linear_3117_86999" x1="16.1179" y1="13.1599" x2="16.1179" y2="24.6216" gradientUnits="userSpaceOnUse">
<stop stop-color="#0D6BDE"/>
<stop offset="1" stop-color="#F30FB8"/>
</linearGradient>
<clipPath id="clip0_3117_86999">
<rect width="165.323" height="36" fill="white"/>
</clipPath>
</defs>
</svg>
