<svg width="201" height="36" viewBox="0 0 201 36" fill="none" xmlns="http://www.w3.org/2000/svg">
<g clip-path="url(#clip0_3117_86999)">
<g clip-path="url(#clip1_3117_86999)">
<rect x="0.0585938" y="0.0585938" width="34.9673" height="34.9673" rx="11.6558" fill="#F5F5F5"/>
<rect x="0.54425" y="0.54425" width="33.9965" height="33.9965" stroke="white" style="mix-blend-mode:soft-light" stroke-width="0.971313"/>
<path d="M23.3701 0.0585938C29.8073 0.0585938 35.0261 5.27679 35.0264 11.7139V23.3701C35.0264 29.8074 29.8074 35.0264 23.3701 35.0264H11.7139C5.27679 35.0261 0.0585938 29.8073 0.0585938 23.3701V11.7139C0.0588568 5.27695 5.27695 0.0588568 11.7139 0.0585938H23.3701ZM11.7148 5.88672C8.49619 5.88672 5.88672 8.49619 5.88672 11.7148V23.3701C5.88672 26.5888 8.49619 29.1982 11.7148 29.1982H23.3701C26.5888 29.1982 29.1982 26.5888 29.1982 23.3701V11.7148C29.1982 8.49619 26.5888 5.88672 23.3701 5.88672H11.7148Z" fill="#1E83FF"/>
<mask id="mask0_3117_86999" style="mask-type:alpha" maskUnits="userSpaceOnUse" x="0" y="0" width="36" height="36">
<path d="M23.3701 0.0585938C29.8073 0.0585938 35.0261 5.27679 35.0264 11.7139V23.3701C35.0264 29.8074 29.8074 35.0264 23.3701 35.0264H11.7139C5.27679 35.0261 0.0585938 29.8073 0.0585938 23.3701V11.7139C0.0588568 5.27695 5.27695 0.0588568 11.7139 0.0585938H23.3701ZM11.7148 5.88672C8.49619 5.88672 5.88672 8.49619 5.88672 11.7148V23.3701C5.88672 26.5888 8.49619 29.1982 11.7148 29.1982H23.3701C26.5888 29.1982 29.1982 26.5888 29.1982 23.3701V11.7148C29.1982 8.49619 26.5888 5.88672 23.3701 5.88672H11.7148Z" fill="#0D6BDE"/>
</mask>
<g mask="url(#mask0_3117_86999)">
<g filter="url(#filter0_f_3117_86999)" style="mix-blend-mode:hard-light">
<path d="M-25.0536 11.2778L10.5854 20.9002C11.2529 21.0804 11.7743 21.6018 11.9545 22.2693L21.5769 57.9083C21.9913 59.4433 20.5907 60.8439 19.0558 60.4295L-16.5832 50.8071C-17.2507 50.6268 -17.7721 50.1054 -17.9523 49.438L-27.5747 13.799C-27.9892 12.264 -26.5885 10.8634 -25.0536 11.2778Z" fill="#FF0C68"/>
</g>
<g opacity="0.4" filter="url(#filter1_f_3117_86999)" style="mix-blend-mode:plus-lighter">
<path d="M12.9987 35.0261C3.19294 32.3986 0.0588379 26.2235 0.0588379 20.2515V35.0261H12.9987Z" fill="#FF77ED"/>
</g>
<g opacity="0.5" filter="url(#filter2_f_3117_86999)">
<path d="M12.9987 35.0261C3.19294 32.3986 0.0588379 26.2235 0.0588379 20.2515V35.0261H12.9987Z" fill="#FFF1FD"/>
</g>
<g opacity="0.5" filter="url(#filter3_f_3117_86999)">
<path d="M12.9987 35.0261C3.19294 32.3986 0.0588379 26.2235 0.0588379 20.2515V35.0261H12.9987Z" fill="#FFF1FD"/>
</g>
<g filter="url(#filter4_f_3117_86999)" style="mix-blend-mode:hard-light">
<path d="M56.937 55.481L21.298 45.8586C20.6305 45.6784 20.1091 45.157 19.9289 44.4895L10.3065 8.85046C9.89209 7.31553 11.2927 5.91489 12.8277 6.32932L48.4667 15.9517C49.1341 16.1319 49.6555 16.6533 49.8358 17.3208L59.4582 52.9598C59.8726 54.4948 58.472 55.8954 56.937 55.481Z" fill="#FF0C68"/>
</g>
<g filter="url(#filter5_f_3117_86999)" style="mix-blend-mode:plus-lighter">
<path d="M-0.32292 -63.6325L57.7184 -47.9616C58.3859 -47.7813 58.9073 -47.2599 59.0875 -46.5925L74.7584 11.4489C75.4257 13.9203 73.1705 16.1755 70.699 15.5082L12.6578 -0.162711C11.9903 -0.342927 11.4689 -0.864323 11.2887 -1.53181L-4.3823 -59.5731C-5.04958 -62.0446 -2.79437 -64.2998 -0.32292 -63.6325Z" fill="#26C532"/>
</g>
<g filter="url(#filter6_f_3117_86999)">
<path d="M12.7764 11.1724L49.1474 20.9924C49.8149 21.1726 50.3363 21.694 50.5166 22.3615L60.3366 58.7325C60.7593 60.2981 59.3307 61.7266 57.7652 61.3039L21.3942 51.4839C20.7267 51.3037 20.2053 50.7823 20.0251 50.1148L10.205 13.7438C9.78234 12.1782 11.2109 10.7497 12.7764 11.1724Z" fill="#0B5CFF"/>
</g>
<g filter="url(#filter7_f_3117_86999)">
<path d="M30.1896 1.23135L16.5162 1.18652C15.8267 1.18426 15.1901 0.816704 14.8434 0.220726L7.96793 -11.5983C7.65711 -12.1326 8.04125 -12.798 8.65939 -12.796L22.3327 -12.7511C23.0222 -12.7489 23.6588 -12.3813 24.0055 -11.7853L30.881 0.0337104C31.1918 0.568021 30.8077 1.23337 30.1896 1.23135Z" fill="#26C532"/>
</g>
<g opacity="0.5" filter="url(#filter8_f_3117_86999)">
<path d="M22.7694 0.0590286C32.0573 2.51375 35.0259 8.28286 35.0259 13.8623V0.0590286H22.7694Z" fill="#C0FFF0"/>
</g>
</g>
<g filter="url(#filter9_ddii_3117_86999)">
<rect x="5.88647" y="5.88672" width="23.3115" height="23.3115" rx="5.82788" fill="white"/>
</g>
<g filter="url(#filter10_iiii_3117_86999)">
<path d="M11.7145 17.5422C14.9331 17.5422 17.5424 14.933 17.5424 11.7144C17.5424 14.933 20.1516 17.5422 23.3702 17.5422C20.1516 17.5422 17.5424 20.1515 17.5424 23.3701C17.5424 20.1515 14.9331 17.5422 11.7145 17.5422Z" fill="#D9D9D9"/>
<path d="M11.7145 17.5422C14.9331 17.5422 17.5424 14.933 17.5424 11.7144C17.5424 14.933 20.1516 17.5422 23.3702 17.5422C20.1516 17.5422 17.5424 20.1515 17.5424 23.3701C17.5424 20.1515 14.9331 17.5422 11.7145 17.5422Z" fill="url(#paint0_linear_3117_86999)"/>
</g>
<path d="M17.5416 12.8872C18.0103 15.2291 19.8551 17.0726 22.1969 17.5415C19.8552 18.0103 18.0104 19.855 17.5416 22.1968C17.0727 19.855 15.2292 18.0101 12.8873 17.5415C15.2292 17.0727 17.0729 15.2291 17.5416 12.8872Z" stroke="white" style="mix-blend-mode:overlay" stroke-width="0.233115"/>
<mask id="mask1_3117_86999" style="mask-type:alpha" maskUnits="userSpaceOnUse" x="11" y="11" width="13" height="13">
<path d="M17.5416 12.8872C18.0103 15.2291 19.8551 17.0726 22.1969 17.5415C19.8552 18.0103 18.0104 19.855 17.5416 22.1968C17.0727 19.855 15.2292 18.0101 12.8873 17.5415C15.2292 17.0727 17.0729 15.2291 17.5416 12.8872Z" fill="#D9D9D9"/>
<path d="M17.5416 12.8872C18.0103 15.2291 19.8551 17.0726 22.1969 17.5415C19.8552 18.0103 18.0104 19.855 17.5416 22.1968C17.0727 19.855 15.2292 18.0101 12.8873 17.5415C15.2292 17.0727 17.0729 15.2291 17.5416 12.8872Z" fill="url(#paint1_linear_3117_86999)"/>
<path d="M17.5416 12.8872C18.0103 15.2291 19.8551 17.0726 22.1969 17.5415C19.8552 18.0103 18.0104 19.855 17.5416 22.1968C17.0727 19.855 15.2292 18.0101 12.8873 17.5415C15.2292 17.0727 17.0729 15.2291 17.5416 12.8872Z" stroke="white" stroke-width="0.233115"/>
</mask>
<g mask="url(#mask1_3117_86999)">
<g filter="url(#filter11_f_3117_86999)" style="mix-blend-mode:plus-lighter">
<path d="M-2.89138 21.126L17.1713 26.5429C17.9722 26.7591 18.5979 27.3848 18.8142 28.1858L24.231 48.2484C24.4721 49.1412 23.6574 49.9559 22.7646 49.7149L2.70197 44.298C1.90099 44.0818 1.27531 43.4561 1.05905 42.6551L-4.3578 22.5925C-4.59885 21.6997 -3.78417 20.885 -2.89138 21.126Z" fill="#FF0C68"/>
</g>
<g filter="url(#filter12_f_3117_86999)" style="mix-blend-mode:plus-lighter">
<path d="M6.06093 25.02L16.9392 27.9571C17.7401 28.1734 18.3658 28.7991 18.5821 29.6L21.5191 40.4783C21.6565 40.9871 21.1922 41.4514 20.6834 41.314L9.80517 38.3769C9.00419 38.1607 8.37851 37.535 8.16225 36.734L5.22516 25.8558C5.08778 25.347 5.5521 24.8827 6.06093 25.02Z" fill="#FFB3CD"/>
</g>
</g>
<g filter="url(#filter13_f_3117_86999)">
<mask id="path-20-inside-1_3117_86999" fill="white">
<path d="M35.0259 23.3701C35.0259 29.8074 29.8074 35.0259 23.3701 35.0259L11.7144 35.0259C5.27705 35.0259 0.0585904 29.8074 0.058591 23.3701L0.058592 11.7143C0.0585925 5.27705 5.27706 0.0585873 11.7144 0.0585879L23.3701 0.0585889C29.8074 0.0585895 35.0259 5.27705 35.0259 11.7144L35.0259 23.3701Z"/>
</mask>
<path d="M23.3701 35.0259C21.3724 34.9935 19.3747 34.9627 17.3771 34.9336C15.4895 34.9061 13.6019 34.88 11.7143 34.8553C5.59325 34.9164 0.224343 29.3773 0.422834 23.3701C0.45432 19.4849 0.479681 15.5996 0.498919 11.7143C0.387477 5.74126 5.76792 0.400651 11.7144 0.544245C15.5996 0.544245 19.4849 0.538123 23.3701 0.525874C29.3248 0.361267 34.7532 5.69909 34.6616 11.7143C34.6931 15.5996 34.7307 19.4849 34.7745 23.3701C34.8616 27.4039 32.6006 31.4001 29.0579 33.4404C27.3481 34.4449 25.3701 34.9967 23.3701 35.0259C25.3697 35.0616 27.3824 34.5706 29.1488 33.601C32.8063 31.6379 35.2731 27.5849 35.2773 23.3701C35.321 19.4849 35.3586 15.5996 35.3901 11.7143C35.6005 5.31247 29.8326 -0.54601 23.3701 -0.408696C19.4849 -0.420946 15.5996 -0.427069 11.7144 -0.427069C5.24365 -0.585398 -0.572213 5.27029 -0.381735 11.7143C-0.362498 15.5996 -0.337138 19.4849 -0.305652 23.3701C-0.409084 29.78 5.4183 35.4372 11.7143 35.1964C13.6019 35.1718 15.4895 35.1457 17.3771 35.1182C19.3747 35.089 21.3724 35.0583 23.3701 35.0259ZM23.3701 35.0259" fill="url(#paint2_linear_3117_86999)" mask="url(#path-20-inside-1_3117_86999)"/>
</g>
<g filter="url(#filter14_f_3117_86999)">
<mask id="path-22-inside-2_3117_86999" fill="white">
<path d="M0.0585938 11.7144C0.0585938 5.27706 5.27706 0.0585937 11.7144 0.0585937L23.3701 0.0585937C29.8074 0.0585937 35.0259 5.27706 35.0259 11.7144V23.3701C35.0259 29.8074 29.8074 35.0259 23.3701 35.0259H11.7144C5.27706 35.0259 0.0585938 29.8074 0.0585938 23.3701L0.0585938 11.7144Z"/>
</mask>
<path d="M11.7144 0.0585937C13.712 0.0909709 15.7097 0.121729 17.7074 0.150869C19.595 0.178402 21.4826 0.204489 23.3701 0.229132C29.4912 0.168024 34.8601 5.70714 34.6616 11.7144C34.6302 15.5996 34.6048 19.4849 34.5856 23.3701C34.697 29.3432 29.3166 34.6838 23.3701 34.5402C19.4849 34.5402 15.5996 34.5463 11.7144 34.5586C5.75968 34.7232 0.331309 29.3854 0.422836 23.3701C0.391352 19.4849 0.353743 15.5996 0.310012 11.7144C0.222825 7.68053 2.48384 3.68442 6.02659 1.64406C7.73639 0.639588 9.71438 0.0877495 11.7144 0.0585937C9.71476 0.0228416 7.70203 0.51388 5.93568 1.48345C2.27816 3.44655 -0.188659 7.49962 -0.192824 11.7144C-0.236556 15.5996 -0.274164 19.4849 -0.305649 23.3701C-0.516044 29.772 5.25188 35.6305 11.7144 35.4932C15.5996 35.5054 19.4849 35.5115 23.3701 35.5115C29.8408 35.6699 35.6567 29.8142 35.4662 23.3701C35.447 19.4849 35.4216 15.5996 35.3901 11.7144C35.4936 5.30442 29.6662 -0.352758 23.3701 -0.111945C21.4826 -0.087302 19.595 -0.0612142 17.7074 -0.033681C15.7097 -0.00454163 13.712 0.0262166 11.7144 0.0585937ZM11.7144 0.0585937" fill="url(#paint3_linear_3117_86999)" mask="url(#path-22-inside-2_3117_86999)"/>
</g>
<g opacity="0.3" filter="url(#filter15_f_3117_86999)" style="mix-blend-mode:plus-lighter">
<mask id="path-24-inside-3_3117_86999" fill="white">
<path d="M0.0585938 11.7144C0.0585938 5.27706 5.27706 0.0585937 11.7144 0.0585937L23.3701 0.0585937C29.8074 0.0585937 35.0259 5.27706 35.0259 11.7144V23.3701C35.0259 29.8074 29.8074 35.0259 23.3701 35.0259H11.7144C5.27706 35.0259 0.0585938 29.8074 0.0585938 23.3701L0.0585938 11.7144Z"/>
</mask>
<path d="M11.7144 0.0585937C13.712 0.0650692 15.7097 0.0712208 17.7074 0.0770487C19.595 0.0825553 21.4826 0.0877729 23.3701 0.0927014C29.5612 -0.0402884 35.1135 5.54605 34.953 11.7144C34.9467 15.5996 34.9417 19.4849 34.9378 23.3701C35.0809 29.5316 29.5263 35.0782 23.3701 34.9288C19.4849 34.9288 15.5996 34.93 11.7144 34.9324C5.55656 35.0861 -0.00763134 29.54 0.131442 23.3701C0.125145 19.4849 0.117624 15.5996 0.108877 11.7144C0.0582313 7.60817 2.40157 3.58927 5.99023 1.57982C7.72265 0.589305 9.71453 0.0617863 11.7144 0.0585937C9.71461 0.0488047 7.71578 0.564163 5.97205 1.5477C2.36043 3.5417 -0.0240656 7.57199 0.00831012 11.7144C-0.000436187 15.5996 -0.00795782 19.4849 -0.0142548 23.3701C-0.177103 29.6174 5.455 35.2676 11.7144 35.1193C15.5996 35.1218 19.4849 35.123 23.3701 35.123C29.6311 35.2754 35.2728 29.6258 35.1139 23.3701C35.1101 19.4849 35.105 15.5996 35.0987 11.7144C35.2402 5.46551 29.5962 -0.144445 23.3701 0.0244861C21.4826 0.0294146 19.595 0.0346322 17.7074 0.0401388C15.7097 0.0459667 13.712 0.0521183 11.7144 0.0585937ZM11.7144 0.0585937" fill="url(#paint4_linear_3117_86999)" mask="url(#path-24-inside-3_3117_86999)"/>
</g>
<g opacity="0.3" filter="url(#filter16_f_3117_86999)" style="mix-blend-mode:plus-lighter">
<mask id="path-26-inside-4_3117_86999" fill="white">
<path d="M35.0259 23.3701C35.0259 29.8074 29.8074 35.0259 23.3701 35.0259L11.7144 35.0259C5.27705 35.0259 0.0585904 29.8074 0.058591 23.3701L0.058592 11.7143C0.0585925 5.27705 5.27706 0.0585873 11.7144 0.0585879L23.3701 0.0585889C29.8074 0.0585895 35.0259 5.27705 35.0259 11.7144L35.0259 23.3701Z"/>
</mask>
<path d="M23.3701 35.0259C21.3724 35.0194 19.3747 35.0133 17.3771 35.0074C15.4895 35.0019 13.6019 34.9967 11.7143 34.9918C5.52327 35.1248 -0.0290256 29.5384 0.13144 23.3701C0.137739 19.4849 0.142809 15.5996 0.146658 11.7143C0.00359984 5.55287 5.55821 0.00623064 11.7144 0.155718C15.5996 0.155718 19.4849 0.154494 23.3701 0.152045C29.5279 -0.00164462 35.0921 5.54444 34.953 11.7143C34.9593 15.5996 34.9669 19.4849 34.9756 23.3701C35.0262 27.4763 32.6829 31.4952 29.0942 33.5047C27.3618 34.4952 25.3699 35.0227 23.3701 35.0259C25.3699 35.0357 27.3687 34.5203 29.1124 33.5368C32.724 31.5428 35.1085 27.5125 35.0762 23.3701C35.0849 19.4849 35.0924 15.5996 35.0987 11.7143C35.2616 5.46712 29.6295 -0.183098 23.3701 -0.0348674C19.4849 -0.0373167 15.5996 -0.0385416 11.7144 -0.0385419C5.45336 -0.190978 -0.188337 5.45868 -0.0294741 11.7143C-0.0256254 15.5996 -0.020556 19.4849 -0.0142583 23.3701C-0.155715 29.619 5.48828 35.2289 11.7143 35.06C13.6019 35.0551 15.4895 35.0498 17.3771 35.0443C19.3747 35.0385 21.3724 35.0324 23.3701 35.0259ZM23.3701 35.0259" fill="url(#paint5_linear_3117_86999)" mask="url(#path-26-inside-4_3117_86999)"/>
</g>
</g>
<path d="M54.5407 14.1403H44.432C43.7228 14.1403 43.0891 13.7169 42.8177 13.0616C42.5463 12.4064 42.695 11.6589 43.1965 11.1574L50.1984 4.15557H45.18C43.8014 4.15557 42.6838 3.03799 42.6838 1.65938H52.0063C52.7155 1.65938 53.3491 2.08269 53.6205 2.73794C53.892 3.39318 53.7434 4.14058 53.2419 4.64225L46.24 11.6441H52.0445C53.4231 11.6441 54.5407 12.7617 54.5407 14.1403ZM99.2225 6.33973C99.2225 3.65572 97.0389 1.47217 94.3549 1.47217C92.9192 1.47217 91.6271 2.09731 90.7354 3.08926C89.8437 2.09731 88.5516 1.47217 87.116 1.47217C84.432 1.47217 82.2484 3.65572 82.2484 6.33973V14.1403C83.627 14.1403 84.7446 13.0227 84.7446 11.6441V6.33973C84.7446 5.03216 85.8084 3.96835 87.116 3.96835C88.4235 3.96835 89.4873 5.03216 89.4873 6.33973V11.6441C89.4873 13.0227 90.6049 14.1403 91.9835 14.1403V6.33973C91.9835 5.03216 93.0473 3.96835 94.3549 3.96835C95.6625 3.96835 96.7263 5.03216 96.7263 6.33973V11.6441C96.7263 13.0227 97.8439 14.1403 99.2225 14.1403V6.33973ZM81.0003 7.89985C81.0003 11.4498 78.1225 14.3275 74.5726 14.3275C71.0227 14.3275 68.1449 11.4498 68.1449 7.89985C68.1449 4.34994 71.0227 1.47217 74.5726 1.47217C78.1225 1.47217 81.0003 4.34994 81.0003 7.89985ZM78.5041 7.89985C78.5041 5.72854 76.7439 3.96835 74.5726 3.96835C72.4013 3.96835 70.6411 5.72854 70.6411 7.89985C70.6411 10.0712 72.4013 11.8313 74.5726 11.8313C76.7439 11.8313 78.5041 10.0712 78.5041 7.89985ZM67.1465 7.89985C67.1465 11.4498 64.2687 14.3275 60.7188 14.3275C57.1689 14.3275 54.2911 11.4498 54.2911 7.89985C54.2911 4.34994 57.1689 1.47217 60.7188 1.47217C64.2687 1.47217 67.1465 4.34994 67.1465 7.89985ZM64.6503 7.89985C64.6503 5.72854 62.8901 3.96835 60.7188 3.96835C58.5475 3.96835 56.7873 5.72854 56.7873 7.89985C56.7873 10.0712 58.5475 11.8313 60.7188 11.8313C62.8901 11.8313 64.6503 10.0712 64.6503 7.89985Z" fill="#0B5CFF"/>
<path d="M68.8212 20.5118C69.5147 20.5118 70.1792 20.552 70.8149 20.6323C71.4621 20.7126 72.0284 20.8904 72.5138 21.1657C73.0108 21.4411 73.4095 21.8369 73.71 22.3532C74.0105 22.8694 74.1608 23.5635 74.1608 24.4355C74.1608 25.2271 74.0221 25.8696 73.7447 26.3629C73.4673 26.8562 73.0917 27.2463 72.6179 27.5331C72.144 27.8199 71.5835 28.0149 70.9362 28.1182C70.289 28.2215 69.5956 28.2731 68.8559 28.2731H66.8796V32.9884H64.6779V20.5118H68.8212ZM66.8796 22.2671V26.4833H68.9252C69.3413 26.4833 69.7285 26.4604 70.0868 26.4145C70.445 26.3686 70.7571 26.2768 71.0229 26.1392C71.2887 26.0015 71.4968 25.8007 71.647 25.5368C71.7973 25.2615 71.8724 24.9001 71.8724 24.4527C71.8724 23.9479 71.7857 23.5521 71.6124 23.2653C71.439 22.967 71.2078 22.749 70.9189 22.6113C70.6415 22.4622 70.3179 22.3704 69.9481 22.336C69.5782 22.2901 69.2026 22.2671 68.8212 22.2671H66.8796Z" fill="#0D213E"/>
<path d="M80.2309 25.8122C79.8842 25.7778 79.5548 25.7606 79.2427 25.7606C78.9191 25.7606 78.6302 25.8007 78.3759 25.881C78.1217 25.9499 77.9079 26.0761 77.7345 26.2596C77.5611 26.4317 77.4282 26.6726 77.3358 26.9824C77.2433 27.2922 77.1971 27.6765 77.1971 28.1354V32.9884H75.1341V23.7299H77.1624V25.382C77.4167 24.8657 77.7576 24.4641 78.1852 24.1773C78.6244 23.879 79.1272 23.7242 79.6935 23.7127C79.7744 23.7127 79.8611 23.7184 79.9535 23.7299C80.0575 23.7299 80.15 23.7356 80.2309 23.7471V25.8122Z" fill="#0D213E"/>
<path d="M85.075 31.5428C85.4218 31.5428 85.7396 31.4797 86.0285 31.3535C86.3175 31.2158 86.5717 31.0208 86.7913 30.7684C87.0109 30.5045 87.1785 30.1776 87.2941 29.7875C87.4212 29.3859 87.4848 28.9156 87.4848 28.3763C87.4848 27.8486 87.4212 27.384 87.2941 26.9824C87.1785 26.5809 87.0109 26.2482 86.7913 25.9843C86.5717 25.7204 86.3175 25.5254 86.0285 25.3992C85.7396 25.2615 85.4218 25.1927 85.075 25.1927C84.7283 25.1927 84.4105 25.2615 84.1215 25.3992C83.8326 25.5254 83.5783 25.7204 83.3587 25.9843C83.1392 26.2482 82.9658 26.5809 82.8387 26.9824C82.7231 27.384 82.6653 27.8486 82.6653 28.3763C82.6653 28.9156 82.7231 29.3859 82.8387 29.7875C82.9658 30.1776 83.1392 30.5045 83.3587 30.7684C83.5783 31.0208 83.8326 31.2158 84.1215 31.3535C84.4105 31.4797 84.7283 31.5428 85.075 31.5428ZM85.075 23.5234C85.6645 23.5234 86.2308 23.6209 86.774 23.8159C87.3172 24.011 87.7968 24.3093 88.2129 24.7108C88.6405 25.1009 88.9815 25.5999 89.2357 26.208C89.49 26.8161 89.6171 27.5388 89.6171 28.3763C89.6171 29.2138 89.49 29.9366 89.2357 30.5447C88.9815 31.1527 88.6405 31.6575 88.2129 32.0591C87.7968 32.4491 87.3172 32.7417 86.774 32.9367C86.2308 33.1203 85.6645 33.2121 85.075 33.2121C84.4856 33.2121 83.9193 33.1203 83.3761 32.9367C82.8329 32.7417 82.3475 32.4491 81.9198 32.0591C81.5038 31.6575 81.1686 31.1527 80.9143 30.5447C80.6601 29.9366 80.5329 29.2138 80.5329 28.3763C80.5329 27.5388 80.6601 26.8161 80.9143 26.208C81.1686 25.5999 81.5038 25.1009 81.9198 24.7108C82.3475 24.3093 82.8329 24.011 83.3761 23.8159C83.9193 23.6209 84.4856 23.5234 85.075 23.5234Z" fill="#0D213E"/>
<path d="M97.3803 20.5118H99.4433V32.9884H97.3803V31.7665C97.1029 32.2254 96.7273 32.5811 96.2534 32.8335C95.7795 33.0859 95.2306 33.2121 94.6065 33.2121C94.0401 33.2121 93.5085 33.1031 93.0115 32.8851C92.5261 32.6557 92.1043 32.3287 91.746 31.9042C91.3877 31.4797 91.1045 30.9692 90.8965 30.3726C90.7 29.776 90.6018 29.1049 90.6018 28.3591C90.6018 27.6249 90.7 26.9595 90.8965 26.3629C91.1045 25.7663 91.3877 25.2558 91.746 24.8313C92.1043 24.4068 92.5261 24.0855 93.0115 23.8676C93.5085 23.6381 94.0401 23.5234 94.6065 23.5234C95.2306 23.5234 95.7795 23.6496 96.2534 23.902C96.7273 24.1544 97.1029 24.51 97.3803 24.9689V20.5118ZM97.4669 28.3591C97.4669 27.8314 97.4034 27.3667 97.2762 26.9652C97.1491 26.5637 96.9757 26.2367 96.7561 25.9843C96.5481 25.7204 96.2938 25.5254 95.9934 25.3992C95.7044 25.2615 95.3924 25.1927 95.0572 25.1927C94.3291 25.1927 93.7628 25.4795 93.3582 26.0531C92.9537 26.6153 92.7515 27.384 92.7515 28.3591C92.7515 29.3458 92.9537 30.1259 93.3582 30.6996C93.7628 31.2617 94.3291 31.5428 95.0572 31.5428C95.3924 31.5428 95.7044 31.4797 95.9934 31.3535C96.2938 31.2158 96.5481 31.0151 96.7561 30.7512C96.9757 30.4873 97.1491 30.1603 97.2762 29.7703C97.4034 29.3687 97.4669 28.8983 97.4669 28.3591Z" fill="#0D213E"/>
<path d="M107.356 31.7149C107.09 32.1967 106.72 32.5696 106.246 32.8335C105.784 33.0859 105.235 33.2121 104.599 33.2121C104.045 33.2121 103.571 33.126 103.178 32.9539C102.785 32.7819 102.461 32.5352 102.207 32.214C101.953 31.8927 101.768 31.5084 101.652 31.061C101.537 30.6135 101.479 30.1145 101.479 29.5638V23.7299H103.542V29.0647C103.542 29.3745 103.559 29.6785 103.594 29.9768C103.629 30.2751 103.704 30.5447 103.819 30.7856C103.935 31.0151 104.108 31.1986 104.339 31.3363C104.571 31.474 104.877 31.5428 105.258 31.5428C105.64 31.5428 105.963 31.474 106.229 31.3363C106.506 31.1872 106.726 30.9864 106.888 30.734C107.05 30.4816 107.165 30.1776 107.235 29.8219C107.315 29.4662 107.356 29.0819 107.356 28.6689V23.7299H109.419V32.9884H107.356V31.7149Z" fill="#0D213E"/>
<path d="M115.469 23.5234C115.989 23.5234 116.48 23.6037 116.942 23.7643C117.404 23.9249 117.815 24.1544 118.173 24.4527C118.543 24.7395 118.849 25.0894 119.092 25.5024C119.335 25.9154 119.502 26.3801 119.595 26.8964H117.584C117.491 26.403 117.26 26.0015 116.89 25.6917C116.532 25.382 116.041 25.2271 115.417 25.2271C115.093 25.2271 114.787 25.2902 114.498 25.4164C114.22 25.5311 113.972 25.7204 113.752 25.9843C113.544 26.2367 113.377 26.5579 113.25 26.948C113.134 27.3381 113.076 27.8084 113.076 28.3591C113.076 28.9098 113.134 29.3859 113.25 29.7875C113.377 30.1776 113.544 30.5045 113.752 30.7684C113.972 31.0208 114.22 31.2101 114.498 31.3363C114.787 31.451 115.093 31.5084 115.417 31.5084C115.937 31.5084 116.405 31.3822 116.821 31.1298C117.248 30.8774 117.526 30.4414 117.653 29.8219H119.664C119.56 30.3611 119.375 30.843 119.109 31.2675C118.843 31.692 118.52 32.0476 118.138 32.3344C117.757 32.6212 117.329 32.8392 116.855 32.9884C116.382 33.1375 115.89 33.2121 115.382 33.2121C114.688 33.2121 114.064 33.0916 113.51 32.8507C112.966 32.5983 112.504 32.2598 112.123 31.8354C111.741 31.3994 111.447 30.8889 111.239 30.3038C111.042 29.7072 110.944 29.0647 110.944 28.3763C110.944 27.688 111.042 27.0512 111.239 26.4661C111.447 25.8696 111.747 25.3533 112.14 24.9173C112.533 24.4814 113.007 24.1429 113.562 23.902C114.116 23.6496 114.752 23.5234 115.469 23.5234Z" fill="#0D213E"/>
<path d="M121.373 21.2862H123.436V23.7299H125.309V25.2099H123.436V30.2521C123.436 30.7225 123.511 31.038 123.662 31.1986C123.812 31.3478 124.107 31.4223 124.546 31.4223H125.291V32.9884H123.766C123.269 32.9884 122.864 32.9539 122.552 32.8851C122.24 32.8048 121.997 32.6729 121.824 32.4893C121.651 32.3057 121.529 32.0591 121.46 31.7493C121.402 31.4281 121.373 31.0323 121.373 30.5619V25.2099H119.986V23.7299H121.373V21.2862Z" fill="#0D213E"/>
<path d="M128.86 20.5118V22.5769H126.797V20.5118H128.86ZM128.86 23.7299V32.9884H126.797V23.7299H128.86Z" fill="#0D213E"/>
<path d="M134.267 30.3382L136.4 23.7299H138.55L135.186 32.9884H133.245L129.847 23.7299H132.118L134.267 30.3382Z" fill="#0D213E"/>
<path d="M141.6 20.5118V22.5769H139.537V20.5118H141.6ZM141.6 23.7299V32.9884H139.537V23.7299H141.6Z" fill="#0D213E"/>
<path d="M144.043 21.2862H146.106V23.7299H147.978V25.2099H146.106V30.2521C146.106 30.7225 146.181 31.038 146.331 31.1986C146.482 31.3478 146.776 31.4223 147.216 31.4223H147.961V32.9884H146.435C145.938 32.9884 145.534 32.9539 145.222 32.8851C144.91 32.8048 144.667 32.6729 144.494 32.4893C144.32 32.3057 144.199 32.0591 144.13 31.7493C144.072 31.4281 144.043 31.0323 144.043 30.5619V25.2099H142.656V23.7299H144.043V21.2862Z" fill="#0D213E"/>
<path d="M148.933 36V34.4339H149.713C149.933 34.4339 150.124 34.4225 150.285 34.3995C150.459 34.388 150.609 34.3364 150.736 34.2446C150.875 34.1643 150.996 34.0381 151.1 33.866C151.204 33.6939 151.308 33.4587 151.412 33.1605L151.516 32.9367L148.136 23.7299H150.389L152.505 30.3726L154.62 23.7299H156.735L153.458 32.9712C153.238 33.5677 153.025 34.0611 152.817 34.4511C152.62 34.8412 152.389 35.151 152.123 35.3804C151.857 35.6099 151.545 35.7705 151.187 35.8623C150.829 35.9541 150.389 36 149.869 36H148.933Z" fill="#0D213E"/>
<path d="M164.806 27.3266C164.309 27.2233 163.841 27.0857 163.401 26.9136C162.962 26.73 162.575 26.4948 162.24 26.208C161.916 25.9212 161.656 25.5827 161.46 25.1927C161.275 24.7911 161.182 24.3265 161.182 23.7987C161.182 23.2136 161.321 22.7031 161.598 22.2671C161.876 21.8312 162.24 21.4698 162.691 21.183C163.141 20.8847 163.65 20.6609 164.216 20.5118C164.783 20.3627 165.355 20.2881 165.933 20.2881C166.557 20.2881 167.14 20.3627 167.683 20.5118C168.227 20.6495 168.712 20.8732 169.14 21.183C169.567 21.4812 169.926 21.8656 170.215 22.336C170.515 22.7949 170.729 23.3513 170.856 24.0052H168.724C168.631 23.6266 168.487 23.3169 168.29 23.076C168.094 22.8236 167.863 22.6285 167.597 22.4908C167.331 22.3417 167.042 22.2384 166.73 22.1811C166.429 22.1122 166.123 22.0778 165.811 22.0778C165.568 22.0778 165.303 22.1065 165.014 22.1639C164.736 22.2212 164.476 22.3188 164.234 22.4564C164.002 22.5826 163.806 22.749 163.644 22.9555C163.482 23.162 163.401 23.4201 163.401 23.7299C163.401 24.2117 163.575 24.5846 163.922 24.8485C164.28 25.1009 164.731 25.2787 165.274 25.382L166.817 25.6745C167.371 25.7778 167.903 25.9154 168.412 26.0875C168.932 26.2482 169.388 26.4719 169.781 26.7587C170.186 27.0455 170.509 27.4012 170.752 27.8257C170.995 28.2501 171.116 28.7779 171.116 29.4089C171.116 30.0399 170.972 30.5963 170.683 31.0782C170.394 31.5485 170.012 31.9444 169.538 32.2656C169.076 32.5753 168.545 32.8105 167.944 32.9712C167.354 33.1318 166.747 33.2121 166.123 33.2121C165.372 33.2121 164.684 33.1146 164.06 32.9195C163.448 32.7245 162.91 32.4434 162.448 32.0763C161.997 31.6977 161.633 31.2388 161.356 30.6996C161.078 30.1603 160.905 29.5466 160.836 28.8582H163.003C163.199 29.7186 163.569 30.3611 164.112 30.7856C164.655 31.2101 165.36 31.4223 166.227 31.4223C166.597 31.4223 166.944 31.3822 167.267 31.3019C167.603 31.2216 167.892 31.1011 168.134 30.9405C168.377 30.7799 168.568 30.5848 168.706 30.3554C168.845 30.1145 168.914 29.8448 168.914 29.5466C168.914 29.2253 168.833 28.9557 168.672 28.7377C168.521 28.5197 168.319 28.3362 168.065 28.187C167.822 28.0379 167.545 27.9232 167.233 27.8429C166.932 27.7511 166.632 27.6765 166.331 27.6191L164.806 27.3266Z" fill="#0D213E"/>
<path d="M178.269 31.7149C178.003 32.1967 177.633 32.5696 177.159 32.8335C176.697 33.0859 176.148 33.2121 175.512 33.2121C174.957 33.2121 174.484 33.126 174.091 32.9539C173.698 32.7819 173.374 32.5352 173.12 32.214C172.865 31.8927 172.681 31.5084 172.565 31.061C172.449 30.6135 172.392 30.1145 172.392 29.5638V23.7299H174.455V29.0647C174.455 29.3745 174.472 29.6785 174.507 29.9768C174.541 30.2751 174.616 30.5447 174.732 30.7856C174.848 31.0151 175.021 31.1986 175.252 31.3363C175.483 31.474 175.79 31.5428 176.171 31.5428C176.552 31.5428 176.876 31.474 177.142 31.3363C177.419 31.1872 177.639 30.9864 177.801 30.734C177.962 30.4816 178.078 30.1776 178.147 29.8219C178.228 29.4662 178.269 29.0819 178.269 28.6689V23.7299H180.332V32.9884H178.269V31.7149Z" fill="#0D213E"/>
<path d="M184.544 20.5118V22.5769H182.481V20.5118H184.544ZM184.544 23.7299V32.9884H182.481V23.7299H184.544Z" fill="#0D213E"/>
<path d="M186.987 21.2862H189.05V23.7299H190.922V25.2099H189.05V30.2521C189.05 30.7225 189.125 31.038 189.275 31.1986C189.425 31.3478 189.72 31.4223 190.159 31.4223H190.905V32.9884H189.379C188.882 32.9884 188.478 32.9539 188.166 32.8851C187.854 32.8048 187.611 32.6729 187.438 32.4893C187.264 32.3057 187.143 32.0591 187.074 31.7493C187.016 31.4281 186.987 31.0323 186.987 30.5619V25.2099H185.6V23.7299H186.987V21.2862Z" fill="#0D213E"/>
<path d="M196.45 33.2121C195.687 33.2121 195.011 33.0801 194.421 32.8163C193.844 32.5524 193.358 32.1967 192.965 31.7493C192.584 31.3019 192.289 30.7799 192.081 30.1833C191.885 29.5867 191.786 28.9557 191.786 28.2903C191.786 27.5905 191.896 26.9537 192.116 26.3801C192.335 25.795 192.642 25.2902 193.034 24.8657C193.427 24.4412 193.901 24.1142 194.456 23.8848C195.011 23.6439 195.629 23.5234 196.311 23.5234C197.039 23.5234 197.686 23.6611 198.253 23.9364C198.819 24.2117 199.293 24.5903 199.674 25.0722C200.056 25.5541 200.339 26.1277 200.524 26.7931C200.709 27.4471 200.778 28.1641 200.732 28.9442H193.884C193.896 29.3114 193.965 29.6555 194.092 29.9768C194.231 30.2865 194.41 30.5562 194.629 30.7856C194.849 31.0151 195.103 31.1929 195.392 31.3191C195.693 31.4453 196.016 31.5084 196.363 31.5084C197.484 31.5084 198.23 31.0782 198.599 30.2177H200.628C200.524 30.5848 200.362 30.952 200.142 31.3191C199.923 31.6747 199.64 31.996 199.293 32.2828C198.958 32.5581 198.553 32.7819 198.079 32.9539C197.605 33.126 197.062 33.2121 196.45 33.2121ZM196.311 25.1238C196.022 25.1238 195.733 25.1697 195.444 25.2615C195.167 25.3533 194.913 25.4967 194.681 25.6917C194.462 25.8753 194.277 26.1162 194.127 26.4145C193.976 26.7013 193.896 27.0455 193.884 27.4471H198.634C198.623 27.0914 198.553 26.7702 198.426 26.4833C198.299 26.1851 198.131 25.9384 197.923 25.7434C197.715 25.5483 197.473 25.3992 197.195 25.2959C196.918 25.1812 196.623 25.1238 196.311 25.1238Z" fill="#0D213E"/>
<path d="M48.4476 20.4561H50.7644L55.4671 33.014H53.0638L52.0784 30.2253H46.9953L46.0272 33.014H43.7795L48.4476 20.4561ZM47.635 28.3892H51.4214L49.5196 23.0023L47.635 28.3892Z" fill="#0D213E"/>
<path d="M58.762 33.014H56.5551V20.4561H58.762V33.014Z" fill="#0D213E"/>
</g>
<defs>
<filter id="filter0_f_3117_86999" x="-39.3042" y="-0.451658" width="72.6106" height="72.6103" filterUnits="userSpaceOnUse" color-interpolation-filters="sRGB">
<feFlood flood-opacity="0" result="BackgroundImageFix"/>
<feBlend mode="normal" in="SourceGraphic" in2="BackgroundImageFix" result="shape"/>
<feGaussianBlur stdDeviation="5.82788" result="effect1_foregroundBlur_3117_86999"/>
</filter>
<filter id="filter1_f_3117_86999" x="-3.82642" y="16.3662" width="20.7104" height="22.5449" filterUnits="userSpaceOnUse" color-interpolation-filters="sRGB">
<feFlood flood-opacity="0" result="BackgroundImageFix"/>
<feBlend mode="normal" in="SourceGraphic" in2="BackgroundImageFix" result="shape"/>
<feGaussianBlur stdDeviation="1.94263" result="effect1_foregroundBlur_3117_86999"/>
</filter>
<filter id="filter2_f_3117_86999" x="-3.82642" y="16.3662" width="20.7104" height="22.5449" filterUnits="userSpaceOnUse" color-interpolation-filters="sRGB">
<feFlood flood-opacity="0" result="BackgroundImageFix"/>
<feBlend mode="normal" in="SourceGraphic" in2="BackgroundImageFix" result="shape"/>
<feGaussianBlur stdDeviation="1.94263" result="effect1_foregroundBlur_3117_86999"/>
</filter>
<filter id="filter3_f_3117_86999" x="-3.82642" y="16.3662" width="20.7104" height="22.5449" filterUnits="userSpaceOnUse" color-interpolation-filters="sRGB">
<feFlood flood-opacity="0" result="BackgroundImageFix"/>
<feBlend mode="normal" in="SourceGraphic" in2="BackgroundImageFix" result="shape"/>
<feGaussianBlur stdDeviation="1.94263" result="effect1_foregroundBlur_3117_86999"/>
</filter>
<filter id="filter4_f_3117_86999" x="-1.42297" y="-5.3999" width="72.6106" height="72.6103" filterUnits="userSpaceOnUse" color-interpolation-filters="sRGB">
<feFlood flood-opacity="0" result="BackgroundImageFix"/>
<feBlend mode="normal" in="SourceGraphic" in2="BackgroundImageFix" result="shape"/>
<feGaussianBlur stdDeviation="5.82788" result="effect1_foregroundBlur_3117_86999"/>
</filter>
<filter id="filter5_f_3117_86999" x="-16.1567" y="-75.4067" width="102.69" height="102.689" filterUnits="userSpaceOnUse" color-interpolation-filters="sRGB">
<feFlood flood-opacity="0" result="BackgroundImageFix"/>
<feBlend mode="normal" in="SourceGraphic" in2="BackgroundImageFix" result="shape"/>
<feGaussianBlur stdDeviation="5.82788" result="effect1_foregroundBlur_3117_86999"/>
</filter>
<filter id="filter6_f_3117_86999" x="-1.52588" y="-0.558592" width="73.5934" height="73.5933" filterUnits="userSpaceOnUse" color-interpolation-filters="sRGB">
<feFlood flood-opacity="0" result="BackgroundImageFix"/>
<feBlend mode="normal" in="SourceGraphic" in2="BackgroundImageFix" result="shape"/>
<feGaussianBlur stdDeviation="5.82788" result="effect1_foregroundBlur_3117_86999"/>
</filter>
<filter id="filter7_f_3117_86999" x="-3.79797" y="-24.4517" width="46.4448" height="37.3389" filterUnits="userSpaceOnUse" color-interpolation-filters="sRGB">
<feFlood flood-opacity="0" result="BackgroundImageFix"/>
<feBlend mode="normal" in="SourceGraphic" in2="BackgroundImageFix" result="shape"/>
<feGaussianBlur stdDeviation="5.82788" result="effect1_foregroundBlur_3117_86999"/>
</filter>
<filter id="filter8_f_3117_86999" x="18.8842" y="-3.82617" width="20.027" height="21.5737" filterUnits="userSpaceOnUse" color-interpolation-filters="sRGB">
<feFlood flood-opacity="0" result="BackgroundImageFix"/>
<feBlend mode="normal" in="SourceGraphic" in2="BackgroundImageFix" result="shape"/>
<feGaussianBlur stdDeviation="1.94263" result="effect1_foregroundBlur_3117_86999"/>
</filter>
<filter id="filter9_ddii_3117_86999" x="5.69221" y="5.69246" width="25.4484" height="25.4484" filterUnits="userSpaceOnUse" color-interpolation-filters="sRGB">
<feFlood flood-opacity="0" result="BackgroundImageFix"/>
<feColorMatrix in="SourceAlpha" type="matrix" values="0 0 0 0 0 0 0 0 0 0 0 0 0 0 0 0 0 0 127 0" result="hardAlpha"/>
<feOffset dx="0.194263" dy="0.194263"/>
<feGaussianBlur stdDeviation="0.0971313"/>
<feComposite in2="hardAlpha" operator="out"/>
<feColorMatrix type="matrix" values="0 0 0 0 0 0 0 0 0 0 0 0 0 0 0 0 0 0 0.2 0"/>
<feBlend mode="normal" in2="BackgroundImageFix" result="effect1_dropShadow_3117_86999"/>
<feColorMatrix in="SourceAlpha" type="matrix" values="0 0 0 0 0 0 0 0 0 0 0 0 0 0 0 0 0 0 127 0" result="hardAlpha"/>
<feOffset dx="0.971313" dy="0.971313"/>
<feGaussianBlur stdDeviation="0.485657"/>
<feComposite in2="hardAlpha" operator="out"/>
<feColorMatrix type="matrix" values="0 0 0 0 0 0 0 0 0 0 0 0 0 0 0 0 0 0 0.1 0"/>
<feBlend mode="normal" in2="effect1_dropShadow_3117_86999" result="effect2_dropShadow_3117_86999"/>
<feBlend mode="normal" in="SourceGraphic" in2="effect2_dropShadow_3117_86999" result="shape"/>
<feColorMatrix in="SourceAlpha" type="matrix" values="0 0 0 0 0 0 0 0 0 0 0 0 0 0 0 0 0 0 127 0" result="hardAlpha"/>
<feOffset dx="-0.194263" dy="-0.194263"/>
<feGaussianBlur stdDeviation="0.194263"/>
<feComposite in2="hardAlpha" operator="arithmetic" k2="-1" k3="1"/>
<feColorMatrix type="matrix" values="0 0 0 0 0.595346 0 0 0 0 0.595346 0 0 0 0 0.595346 0 0 0 1 0"/>
<feBlend mode="normal" in2="shape" result="effect3_innerShadow_3117_86999"/>
<feColorMatrix in="SourceAlpha" type="matrix" values="0 0 0 0 0 0 0 0 0 0 0 0 0 0 0 0 0 0 127 0" result="hardAlpha"/>
<feOffset dx="0.194263" dy="0.194263"/>
<feGaussianBlur stdDeviation="0.485657"/>
<feComposite in2="hardAlpha" operator="arithmetic" k2="-1" k3="1"/>
<feColorMatrix type="matrix" values="0 0 0 0 1 0 0 0 0 1 0 0 0 0 1 0 0 0 0.2 0"/>
<feBlend mode="plus-lighter" in2="effect3_innerShadow_3117_86999" result="effect4_innerShadow_3117_86999"/>
</filter>
<filter id="filter10_iiii_3117_86999" x="11.3415" y="11.3414" width="12.3085" height="12.3085" filterUnits="userSpaceOnUse" color-interpolation-filters="sRGB">
<feFlood flood-opacity="0" result="BackgroundImageFix"/>
<feBlend mode="normal" in="SourceGraphic" in2="BackgroundImageFix" result="shape"/>
<feColorMatrix in="SourceAlpha" type="matrix" values="0 0 0 0 0 0 0 0 0 0 0 0 0 0 0 0 0 0 127 0" result="hardAlpha"/>
<feOffset dx="0.372984" dy="0.372984"/>
<feGaussianBlur stdDeviation="0.139869"/>
<feComposite in2="hardAlpha" operator="arithmetic" k2="-1" k3="1"/>
<feColorMatrix type="matrix" values="0 0 0 0 0 0 0 0 0 0 0 0 0 0 0 0 0 0 0.1 0"/>
<feBlend mode="plus-darker" in2="shape" result="effect1_innerShadow_3117_86999"/>
<feColorMatrix in="SourceAlpha" type="matrix" values="0 0 0 0 0 0 0 0 0 0 0 0 0 0 0 0 0 0 127 0" result="hardAlpha"/>
<feOffset dx="0.186492" dy="0.186492"/>
<feGaussianBlur stdDeviation="0.0932461"/>
<feComposite in2="hardAlpha" operator="arithmetic" k2="-1" k3="1"/>
<feColorMatrix type="matrix" values="0 0 0 0 0 0 0 0 0 0 0 0 0 0 0 0 0 0 0.15 0"/>
<feBlend mode="plus-darker" in2="effect1_innerShadow_3117_86999" result="effect2_innerShadow_3117_86999"/>
<feColorMatrix in="SourceAlpha" type="matrix" values="0 0 0 0 0 0 0 0 0 0 0 0 0 0 0 0 0 0 127 0" result="hardAlpha"/>
<feOffset dx="-0.372984" dy="-0.372984"/>
<feGaussianBlur stdDeviation="0.186492"/>
<feComposite in2="hardAlpha" operator="arithmetic" k2="-1" k3="1"/>
<feColorMatrix type="matrix" values="0 0 0 0 1 0 0 0 0 1 0 0 0 0 1 0 0 0 0.1 0"/>
<feBlend mode="normal" in2="effect2_innerShadow_3117_86999" result="effect3_innerShadow_3117_86999"/>
<feColorMatrix in="SourceAlpha" type="matrix" values="0 0 0 0 0 0 0 0 0 0 0 0 0 0 0 0 0 0 127 0" result="hardAlpha"/>
<feOffset dx="-0.186492" dy="-0.186492"/>
<feGaussianBlur stdDeviation="0.0932461"/>
<feComposite in2="hardAlpha" operator="arithmetic" k2="-1" k3="1"/>
<feColorMatrix type="matrix" values="0 0 0 0 1 0 0 0 0 1 0 0 0 0 1 0 0 0 0.2 0"/>
<feBlend mode="normal" in2="effect3_innerShadow_3117_86999" result="effect4_innerShadow_3117_86999"/>
</filter>
<filter id="filter11_f_3117_86999" x="-18.3875" y="7.09609" width="56.6484" height="56.6486" filterUnits="userSpaceOnUse" color-interpolation-filters="sRGB">
<feFlood flood-opacity="0" result="BackgroundImageFix"/>
<feBlend mode="normal" in="SourceGraphic" in2="BackgroundImageFix" result="shape"/>
<feGaussianBlur stdDeviation="6.99346" result="effect1_foregroundBlur_3117_86999"/>
</filter>
<filter id="filter12_f_3117_86999" x="-8.78623" y="11.0087" width="44.3167" height="44.3166" filterUnits="userSpaceOnUse" color-interpolation-filters="sRGB">
<feFlood flood-opacity="0" result="BackgroundImageFix"/>
<feBlend mode="normal" in="SourceGraphic" in2="BackgroundImageFix" result="shape"/>
<feGaussianBlur stdDeviation="6.99346" result="effect1_foregroundBlur_3117_86999"/>
</filter>
<filter id="filter13_f_3117_86999" x="-0.329932" y="-0.329932" width="35.7443" height="35.7443" filterUnits="userSpaceOnUse" color-interpolation-filters="sRGB">
<feFlood flood-opacity="0" result="BackgroundImageFix"/>
<feBlend mode="normal" in="SourceGraphic" in2="BackgroundImageFix" result="shape"/>
<feGaussianBlur stdDeviation="0.194263" result="effect1_foregroundBlur_3117_86999"/>
</filter>
<filter id="filter14_f_3117_86999" x="-0.329932" y="-0.329932" width="35.7443" height="35.7443" filterUnits="userSpaceOnUse" color-interpolation-filters="sRGB">
<feFlood flood-opacity="0" result="BackgroundImageFix"/>
<feBlend mode="normal" in="SourceGraphic" in2="BackgroundImageFix" result="shape"/>
<feGaussianBlur stdDeviation="0.194263" result="effect1_foregroundBlur_3117_86999"/>
</filter>
<filter id="filter15_f_3117_86999" x="-0.329932" y="-0.329932" width="35.7443" height="35.7443" filterUnits="userSpaceOnUse" color-interpolation-filters="sRGB">
<feFlood flood-opacity="0" result="BackgroundImageFix"/>
<feBlend mode="normal" in="SourceGraphic" in2="BackgroundImageFix" result="shape"/>
<feGaussianBlur stdDeviation="0.194263" result="effect1_foregroundBlur_3117_86999"/>
</filter>
<filter id="filter16_f_3117_86999" x="-0.329932" y="-0.329932" width="35.7443" height="35.7443" filterUnits="userSpaceOnUse" color-interpolation-filters="sRGB">
<feFlood flood-opacity="0" result="BackgroundImageFix"/>
<feBlend mode="normal" in="SourceGraphic" in2="BackgroundImageFix" result="shape"/>
<feGaussianBlur stdDeviation="0.194263" result="effect1_foregroundBlur_3117_86999"/>
</filter>
<linearGradient id="paint0_linear_3117_86999" x1="17.5424" y1="22.9072" x2="17.5424" y2="12.4702" gradientUnits="userSpaceOnUse">
<stop stop-color="#FF00BD"/>
<stop offset="1" stop-color="#0071FB"/>
</linearGradient>
<linearGradient id="paint1_linear_3117_86999" x1="17.5424" y1="23.3701" x2="17.5424" y2="8.21763" gradientUnits="userSpaceOnUse">
<stop stop-color="#0071FB"/>
<stop offset="1" stop-color="#FF00BD"/>
</linearGradient>
<linearGradient id="paint2_linear_3117_86999" x1="1.0299" y1="0.0585901" x2="13.657" y2="13.657" gradientUnits="userSpaceOnUse">
<stop stop-color="white"/>
<stop offset="1" stop-color="white" stop-opacity="0"/>
</linearGradient>
<linearGradient id="paint3_linear_3117_86999" x1="34.0546" y1="35.0259" x2="21.4275" y2="21.4275" gradientUnits="userSpaceOnUse">
<stop stop-color="white"/>
<stop offset="1" stop-color="white" stop-opacity="0"/>
</linearGradient>
<linearGradient id="paint4_linear_3117_86999" x1="34.0546" y1="35.0259" x2="2.97253" y2="5.88647" gradientUnits="userSpaceOnUse">
<stop stop-color="white"/>
<stop offset="1" stop-color="white" stop-opacity="0"/>
</linearGradient>
<linearGradient id="paint5_linear_3117_86999" x1="1.0299" y1="0.0585872" x2="32.1119" y2="29.198" gradientUnits="userSpaceOnUse">
<stop stop-color="white"/>
<stop offset="1" stop-color="white" stop-opacity="0"/>
</linearGradient>
<clipPath id="clip0_3117_86999">
<rect width="201" height="36" fill="white"/>
</clipPath>
<clipPath id="clip1_3117_86999">
<rect x="0.0585938" y="0.0585938" width="34.9673" height="34.9673" rx="11.6558" fill="white"/>
</clipPath>
</defs>
</svg>
