<svg width="16" height="16" viewBox="0 0 16 16" fill="none" xmlns="http://www.w3.org/2000/svg">
<path d="M2.75 3.3V13.2C2.75 13.48 2.75 13.62 2.8045 13.727C2.85243 13.8211 2.92892 13.8976 3.023 13.9455C3.12996 14 3.26997 14 3.55 14H5.45C5.73003 14 5.87004 14 5.977 13.9455C6.07108 13.8976 6.14757 13.8211 6.1955 13.727C6.25 13.62 6.25 13.48 6.25 13.2V3.3C6.25 3.01997 6.25 2.87996 6.1955 2.773C6.14757 2.67892 6.07108 2.60243 5.977 2.5545C5.87004 2.5 5.73003 2.5 5.45 2.5H3.55C3.26997 2.5 3.12996 2.5 3.023 2.5545C2.92892 2.60243 2.85243 2.67892 2.8045 2.773C2.75 2.87996 2.75 3.01997 2.75 3.3Z" stroke="#222325" stroke-width="1.2" stroke-linecap="round" stroke-linejoin="round"/>
<path d="M6.25 5.8V13.2C6.25 13.48 6.25 13.62 6.3045 13.727C6.35243 13.8211 6.42892 13.8976 6.523 13.9455C6.62996 14 6.76997 14 7.05 14H8.95C9.23003 14 9.37004 14 9.477 13.9455C9.57108 13.8976 9.64757 13.8211 9.6955 13.727C9.75 13.62 9.75 13.48 9.75 13.2V5.8C9.75 5.51997 9.75 5.37996 9.6955 5.273C9.64757 5.17892 9.57108 5.10243 9.477 5.0545C9.37004 5 9.23003 5 8.95 5H7.05C6.76997 5 6.62996 5 6.523 5.0545C6.42892 5.10243 6.35243 5.17892 6.3045 5.273C6.25 5.37996 6.25 5.51997 6.25 5.8Z" stroke="#222325" stroke-width="1.2" stroke-linecap="round" stroke-linejoin="round"/>
<path d="M9.75 8.8V13.2C9.75 13.48 9.75 13.62 9.8045 13.727C9.85243 13.8211 9.92892 13.8976 10.023 13.9455C10.13 14 10.27 14 10.55 14H12.45C12.73 14 12.87 14 12.977 13.9455C13.0711 13.8976 13.1476 13.8211 13.1955 13.727C13.25 13.62 13.25 13.48 13.25 13.2V8.8C13.25 8.51997 13.25 8.37996 13.1955 8.273C13.1476 8.17892 13.0711 8.10243 12.977 8.0545C12.87 8 12.73 8 12.45 8H10.55C10.27 8 10.13 8 10.023 8.0545C9.92892 8.10243 9.85243 8.17892 9.8045 8.273C9.75 8.37996 9.75 8.51997 9.75 8.8Z" stroke="#222325" stroke-width="1.2" stroke-linecap="round" stroke-linejoin="round"/>
<path d="M1.5 14H14.5" stroke="#222325" stroke-width="1.2" stroke-linecap="round" stroke-linejoin="round"/>
</svg>
