<svg width="16" height="16" viewBox="0 0 16 16" fill="none" xmlns="http://www.w3.org/2000/svg">
<g clip-path="url(#clip0_3326_8746)">
<path d="M13.0411 6.00293C13.6912 6.01314 14.0865 6.05439 14.4073 6.21777C14.7836 6.40947 15.0896 6.71561 15.2814 7.0918C15.4994 7.51962 15.5001 8.08009 15.5001 9.2002V12.2998L15.4962 13.041C15.486 13.6912 15.4448 14.0863 15.2814 14.4072C15.0896 14.7836 14.7837 15.0895 14.4073 15.2812C14.0865 15.4447 13.6913 15.4859 13.0411 15.4961L12.2999 15.5H9.20032L8.45813 15.4961C7.80816 15.4859 7.41275 15.4447 7.09192 15.2812C6.71573 15.0895 6.40959 14.7835 6.2179 14.4072C6.05452 14.0864 6.01326 13.6911 6.00305 13.041L6.00012 12.2998V9.2002C6.00012 8.08009 5.99991 7.51962 6.2179 7.0918C6.40963 6.71554 6.71567 6.40951 7.09192 6.21777C7.41275 6.0543 7.80815 6.01315 8.45813 6.00293L9.20032 6H12.2999L13.0411 6.00293ZM7.25403 13.7461C7.26894 13.8223 7.28204 13.8521 7.28723 13.8623C7.36389 14.0128 7.48642 14.1352 7.63684 14.2119C7.65339 14.2203 7.7252 14.2552 7.9845 14.2764C8.25777 14.2987 8.62065 14.2998 9.20032 14.2998H12.2999C12.8796 14.2998 13.2425 14.2987 13.5157 14.2764C13.774 14.2552 13.8456 14.2205 13.8624 14.2119C14.013 14.1352 14.1353 14.0128 14.212 13.8623C14.2206 13.8455 14.2554 13.7739 14.2765 13.5156C14.295 13.2897 14.2972 13.0024 14.298 12.582L14.174 12.5078L13.6085 12.1689L12.7277 11.6396L7.25403 13.7461ZM9.20032 7.2002C8.62062 7.2002 8.25778 7.20132 7.9845 7.22363C7.7252 7.24482 7.65339 7.27868 7.63684 7.28711C7.48634 7.3638 7.36393 7.48622 7.28723 7.63672C7.2788 7.65327 7.24494 7.72508 7.22375 7.98438C7.20144 8.25765 7.20032 8.6205 7.20032 9.2002V12.4805L12.5704 10.416C12.7427 10.35 12.9366 10.366 13.0948 10.4609L14.2257 11.1396L14.2999 11.1836V9.2002C14.2999 8.62052 14.2988 8.25765 14.2765 7.98438C14.2553 7.72508 14.2205 7.65327 14.212 7.63672C14.1353 7.4863 14.0129 7.36377 13.8624 7.28711C13.8452 7.27837 13.7729 7.24466 13.5157 7.22363C13.2425 7.20131 12.8796 7.2002 12.2999 7.2002H9.20032ZM9.23645 8.61914C9.48837 8.61917 9.73019 8.71933 9.90833 8.89746C10.0865 9.07562 10.1866 9.31741 10.1866 9.56934C10.1866 9.82127 10.0865 10.0631 9.90833 10.2412C9.73019 10.4193 9.48837 10.5195 9.23645 10.5195C8.98452 10.5195 8.74273 10.4193 8.56458 10.2412C8.38642 10.0631 8.28625 9.82129 8.28625 9.56934C8.28625 9.31738 8.38642 9.07562 8.56458 8.89746C8.74273 8.71933 8.98452 8.61914 9.23645 8.61914Z" fill="#222325"/>
<path d="M9.99861 4.44074L9.21462 1.51484C8.91432 1.02621 8.31869 0.770821 7.73638 0.926851L2.04368 2.45221C1.33374 2.64243 0.912435 3.37214 1.10266 4.08206L2.62798 9.77465C2.78406 10.3572 3.30653 10.7572 3.8801 10.7726L4.52779 10.5991" stroke="#222325" stroke-width="1.2" stroke-linecap="round"/>
<path fill-rule="evenodd" clip-rule="evenodd" d="M4.16444 5.17467C3.96549 4.43123 4.64593 3.75148 5.38939 3.95069L7.36395 4.47913C7.66181 4.55894 7.87791 4.75733 7.99785 4.9998C7.0108 5.00059 6.49304 5.01288 6.09174 5.21735C5.71547 5.4091 5.40962 5.71518 5.21789 6.09146C5.03939 6.44184 5.00776 6.88087 5.00191 7.64361C4.85982 7.52018 4.74856 7.35438 4.69371 7.14992L4.16444 5.17467Z" fill="#222325"/>
</g>
<defs>
<clipPath id="clip0_3326_8746">
<rect width="16" height="16" fill="white"/>
</clipPath>
</defs>
</svg>
