<svg width="16" height="16" viewBox="0 0 16 16" fill="none" xmlns="http://www.w3.org/2000/svg">
<rect x="6.1" y="6.1" width="8.29954" height="8.29954" rx="1.4" stroke="#222325" stroke-width="1.2"/>
<path d="M6 0.900391C7.75795 0.900391 9.3079 1.78972 10.2248 3.14303C10.4845 3.52649 10.1779 4 9.7147 4C9.48763 4 9.28051 3.87823 9.14617 3.69515C8.43638 2.72782 7.29161 2.09961 6 2.09961C3.84609 2.09961 2.09961 3.84609 2.09961 6C2.09961 7.29161 2.72782 8.43638 3.69515 9.14617C3.87823 9.28051 4 9.48763 4 9.7147C4 10.1779 3.52649 10.4845 3.14303 10.2248C1.78972 9.3079 0.900391 7.75795 0.900391 6C0.900391 3.18335 3.18335 0.900391 6 0.900391Z" fill="#222325"/>
</svg>
