<svg width="32" height="32" viewBox="0 0 32 32" fill="none" xmlns="http://www.w3.org/2000/svg">
<path d="M14.2969 19.2612C15.2983 18.53 16.661 18.5294 17.6621 19.2612L22.3594 22.6948C24.0812 23.9548 23.8615 26.596 21.9571 27.5562L17.2579 29.9214C16.4535 30.3254 15.5036 30.3253 14.6993 29.9214L10 27.5562C8.09459 26.5962 7.8767 23.9548 9.59965 22.6948L14.2969 19.2612Z" fill="#2A2B2D"/>
<path d="M4.43559 10.0015C5.39351 8.09266 8.03098 7.87169 9.2891 9.59717L12.3418 13.7905C13.2951 15.101 13.2954 16.8804 12.3418 18.1909L9.2891 22.3823C8.03081 24.1081 5.39317 23.8876 4.43559 21.978L2.07816 17.271C1.67445 16.4649 1.67448 15.5146 2.07816 14.7085L4.43559 10.0015Z" fill="#2A2B2D"/>
<path d="M22.6817 9.59717C23.9401 7.8719 26.5756 8.09275 27.5332 10.0015L29.8926 14.7085C30.2964 15.5145 30.2962 16.4649 29.8926 17.271L27.5332 21.978C26.5755 23.8872 23.9399 24.1083 22.6817 22.3823L19.2539 17.6753C18.5233 16.6721 18.5233 15.3074 19.2539 14.3042L22.6817 9.59717Z" fill="#2A2B2D"/>
<path d="M14.6993 2.07764C15.5039 1.67342 16.4533 1.67326 17.2579 2.07764L21.9571 4.44092C23.862 5.4007 24.0813 8.04203 22.3594 9.30225L17.6621 12.7358C16.6608 13.4679 15.2984 13.4675 14.2969 12.7358L9.59965 9.30225C7.87621 8.04227 8.09408 5.4007 10 4.44092L14.6993 2.07764Z" fill="#2A2B2D"/>
</svg>
