<svg width="48" height="48" viewBox="0 0 48 48" fill="none" xmlns="http://www.w3.org/2000/svg">
<path d="M21.4454 28.8923C22.9475 27.7955 24.9915 27.7946 26.4932 28.8923L33.5391 34.0427C36.1218 35.9327 35.7922 39.8945 32.9356 41.3347L25.8868 44.8826C24.6803 45.4886 23.2554 45.4885 22.0489 44.8826L15.0001 41.3347C12.1419 39.8948 11.815 35.9326 14.3995 34.0427L21.4454 28.8923Z" fill="#000001"/>
<path d="M6.65338 15.0027C8.09026 12.1395 12.0465 11.808 13.9337 14.3962L18.5128 20.6863C19.9426 22.652 19.9431 25.3211 18.5128 27.2869L13.9337 33.574C12.0462 36.1626 8.08975 35.8319 6.65338 32.9675L3.11725 25.907C2.51168 24.6979 2.51172 23.2723 3.11725 22.0632L6.65338 15.0027Z" fill="#000001"/>
<path d="M34.0225 14.3962C35.9101 11.8083 39.8634 12.1396 41.2999 15.0027L44.8389 22.0632C45.4446 23.2723 45.4443 24.6978 44.8389 25.907L41.2999 32.9675C39.8633 35.8312 35.9099 36.163 34.0225 33.574L28.8809 26.5134C27.7849 25.0087 27.7849 22.9615 28.8809 21.4568L34.0225 14.3962Z" fill="#000001"/>
<path d="M22.0489 3.11695C23.2559 2.51062 24.6799 2.51037 25.8868 3.11695L32.9356 6.66187C35.7931 8.10154 36.122 12.0635 33.5391 13.9539L26.4932 19.1042C24.9913 20.2023 22.9476 20.2017 21.4454 19.1042L14.3995 13.9539C11.8143 12.0639 12.1411 8.10154 15.0001 6.66187L22.0489 3.11695Z" fill="#000001"/>
</svg>
