<svg width="32" height="32" viewBox="0 0 32 32" fill="none" xmlns="http://www.w3.org/2000/svg">
<g clip-path="url(#clip0_3249_87196)">
<path d="M30.2218 11.1523V23.1111C30.2218 25.0748 28.6299 26.6667 26.6662 26.6667H5.3329C3.36922 26.6667 1.77734 25.0748 1.77734 23.1111V11.1514L12.1542 19.3058C13.2862 20.1964 14.6429 20.6426 15.9997 20.6426C17.3565 20.6426 18.7133 20.1964 19.8452 19.3075L30.2218 11.1523ZM13.2531 17.9082C14.8695 19.1825 17.1299 19.1808 18.7462 17.91L30.2218 8.88975C30.2218 6.92607 28.6299 5.33337 26.6662 5.33337H5.3329C3.36922 5.33337 1.77734 6.92525 1.77734 8.88893L13.2531 17.9082Z" fill="#0C5CFF"/>
</g>
<defs>
<clipPath id="clip0_3249_87196">
<rect width="32" height="32" fill="white"/>
</clipPath>
</defs>
</svg>
