<svg width="48" height="48" viewBox="0 0 48 48" fill="none" xmlns="http://www.w3.org/2000/svg">
<g clip-path="url(#clip0_3267_6316)">
<path d="M45.3337 16.7284V34.6666C45.3337 37.6122 42.9458 40 40.0003 40H8.00033C5.05481 40 2.66699 37.6122 2.66699 34.6666V16.727L18.2323 28.9586C19.9302 30.2946 21.9654 30.9638 24.0005 30.9638C26.0357 30.9638 28.0709 30.2945 29.7688 28.9612L45.3337 16.7284ZM19.8807 26.8623C22.3052 28.7738 25.6958 28.7711 28.1203 26.8649L45.3337 13.3346C45.3337 10.389 42.9458 8 40.0003 8H8.00033C5.05481 8 2.66699 10.3878 2.66699 13.3333L19.8807 26.8623Z" fill="#0C5CFF"/>
</g>
<defs>
<clipPath id="clip0_3267_6316">
<rect width="48" height="48" fill="white"/>
</clipPath>
</defs>
</svg>
