<svg width="32" height="32" viewBox="0 0 32 32" fill="none" xmlns="http://www.w3.org/2000/svg">
<g clip-path="url(#clip0_3249_87363)">
<path d="M23.9993 3.55519H23.5542V7.11125C23.5542 8.58349 22.3607 9.77795 20.8876 9.77795C19.4145 9.77795 18.2209 8.58348 18.2209 7.11125V3.55519H13.7765V7.11125C13.7765 8.58349 12.5829 9.77795 11.1098 9.77795C9.63672 9.77795 8.44314 8.58348 8.44314 7.11125V3.55519H7.99935C5.05382 3.55519 2.66602 5.94282 2.66602 8.88861V23.1111C2.66602 26.0564 5.05382 28.4445 7.99935 28.4445H23.9993C26.9449 28.4445 29.3327 26.0564 29.3327 23.1111V8.88861C29.3327 5.94282 26.9449 3.55519 23.9993 3.55519ZM16.7645 22.776C16.5137 23.2452 16.173 23.6371 15.7433 23.9518C15.3153 24.2664 14.8166 24.5004 14.2511 24.6549C13.6838 24.8099 13.0922 24.8871 12.4733 24.8871C11.7528 24.8871 11.1148 24.7773 10.5597 24.5603C10.0045 24.3437 9.53492 24.0464 9.15169 23.6683C8.76843 23.2899 8.46897 22.855 8.25064 22.3632C8.03405 21.8714 7.90863 21.3506 7.87434 20.802H9.86522C9.90993 21.144 9.99933 21.4674 10.1317 21.7716C10.2624 22.0741 10.4377 22.3406 10.6543 22.5694C10.8709 22.7981 11.1321 22.9787 11.4347 23.1093C11.7389 23.2417 12.0965 23.3072 12.5076 23.3072C12.8635 23.3072 13.1955 23.2591 13.5032 23.161C13.8127 23.0646 14.0809 22.9235 14.311 22.7413C14.5397 22.5577 14.7168 22.3359 14.8422 22.0707C14.9681 21.8077 15.0315 21.5051 15.0315 21.1614C15.0315 20.7608 14.9577 20.424 14.808 20.1488C14.66 19.8736 14.449 19.6535 14.1738 19.4886C13.8987 19.3215 13.5701 19.203 13.1869 19.1275C12.8032 19.0533 12.3822 19.0155 11.9247 19.0155H11.3231V17.3171H11.8388C13.7611 17.3171 14.722 16.6756 14.722 15.3948C14.722 15.0853 14.6617 14.8136 14.5415 14.5779C14.423 14.344 14.265 14.1534 14.0705 14.0037C13.8761 13.8557 13.6478 13.7442 13.3848 13.6686C13.1196 13.5944 12.8466 13.5566 12.5593 13.5566C11.8045 13.5566 11.2146 13.7698 10.7919 14.193C10.3692 14.6157 10.1109 15.1934 10.0198 15.9261H8.02888C8.07359 15.331 8.21464 14.7928 8.44858 14.3132C8.68251 13.8318 8.9985 13.4191 9.39259 13.0771C9.78756 12.7333 10.2624 12.4668 10.8175 12.2793C11.3731 12.0901 11.9937 11.9954 12.6795 11.9954C13.1955 11.9954 13.7007 12.0558 14.1994 12.176C14.6964 12.2966 15.14 12.4907 15.5302 12.7589C15.9186 13.0289 16.2298 13.3692 16.4655 13.7802C16.699 14.193 16.8162 14.6899 16.8162 15.2746C16.8162 15.8918 16.6513 16.4469 16.3192 16.9387C15.9877 17.4304 15.5458 17.8085 14.9972 18.0719C15.3752 18.2091 15.6986 18.3862 15.9668 18.6049C16.235 18.8215 16.4568 19.0619 16.627 19.325C16.7989 19.588 16.9282 19.8719 17.0141 20.1744C17.1001 20.4787 17.1426 20.7899 17.1426 21.1097C17.1426 21.7512 17.0176 22.3064 16.7645 22.776ZM20.8876 8.00013C20.3963 8.00013 19.9987 7.60255 19.9987 7.11123V1.77782C19.9987 1.2865 20.3963 0.888916 20.8876 0.888916C21.3789 0.888916 21.7765 1.2865 21.7765 1.77782V7.11125C21.7765 7.60257 21.3789 8.00013 20.8876 8.00013ZM11.1098 8.00013C10.6185 8.00013 10.2209 7.60255 10.2209 7.11123V1.77782C10.2209 1.2865 10.6185 0.888916 11.1098 0.888916C11.6011 0.888916 11.9987 1.2865 11.9987 1.77782V7.11125C11.9987 7.60257 11.6011 8.00013 11.1098 8.00013ZM23.4894 24.6636H21.4451V15.1886H18.6651V13.7802C19.1122 13.7698 19.5059 13.7442 19.8496 13.7029C20.1938 13.6634 20.4963 13.5909 20.7593 13.4881C21.0224 13.3865 21.2511 13.2337 21.4451 13.0341C21.6413 12.8331 21.8184 12.5614 21.9781 12.2189H23.4894V24.6636Z" fill="#0C5CFF"/>
</g>
<defs>
<clipPath id="clip0_3249_87363">
<rect width="32" height="32" fill="white"/>
</clipPath>
</defs>
</svg>
