<svg width="48" height="48" viewBox="0 0 48 48" fill="none" xmlns="http://www.w3.org/2000/svg">
<g clip-path="url(#clip0_3267_6319)">
<path d="M36 5.3334H35.3323V10.6675C35.3323 12.8759 33.542 14.6675 31.3323 14.6675C29.1227 14.6675 27.3323 12.8758 27.3323 10.6675V5.3334H20.6657V10.6675C20.6657 12.8759 18.8753 14.6675 16.6657 14.6675C14.4561 14.6675 12.6657 12.8758 12.6657 10.6675V5.3334H12C7.58171 5.3334 4 8.91484 4 13.3335V34.6672C4 39.0852 7.58171 42.6673 12 42.6673H36C40.4183 42.6673 44 39.0853 44 34.6672V13.3335C44 8.91484 40.4183 5.3334 36 5.3334ZM25.1478 34.1646C24.7715 34.8684 24.2604 35.4563 23.6159 35.9283C22.974 36.4003 22.2259 36.7512 21.3776 36.983C20.5267 37.2154 19.6393 37.3313 18.7109 37.3313C17.6302 37.3313 16.6732 37.1666 15.8405 36.8411C15.0078 36.5162 14.3034 36.0702 13.7285 35.5031C13.1536 34.9354 12.7044 34.2831 12.3769 33.5454C12.0521 32.8078 11.8639 32.0265 11.8125 31.2036H14.7988C14.8659 31.7166 15 32.2016 15.1985 32.658C15.3945 33.1118 15.6575 33.5116 15.9824 33.8547C16.3073 34.1978 16.6992 34.4686 17.153 34.6646C17.6093 34.8632 18.1458 34.9615 18.7623 34.9615C19.2962 34.9615 19.7942 34.8892 20.2558 34.7421C20.72 34.5975 21.1224 34.3859 21.4674 34.1125C21.8105 33.8371 22.0762 33.5044 22.2643 33.1066C22.4531 32.7121 22.5482 32.2583 22.5482 31.7427C22.5482 31.1417 22.4375 30.6365 22.2129 30.2238C21.9909 29.811 21.6745 29.4809 21.2617 29.2335C20.849 28.9829 20.3561 28.8051 19.7813 28.6919C19.2057 28.5805 18.5742 28.5239 17.888 28.5239H16.9857V25.9763H17.7591C20.6426 25.9763 22.084 25.014 22.084 23.0928C22.084 22.6286 21.9935 22.221 21.8132 21.8675C21.6354 21.5166 21.3985 21.2308 21.1068 21.0062C20.8151 20.7842 20.4727 20.6168 20.0782 20.5036C19.6804 20.3922 19.2709 20.3356 18.8399 20.3356C17.7077 20.3356 16.8229 20.6552 16.1888 21.29C15.5547 21.9242 15.1673 22.7907 15.0306 23.8897H12.0443C12.1114 22.9971 12.3229 22.1898 12.6738 21.4704C13.0247 20.7484 13.4987 20.1292 14.0899 19.6162C14.6823 19.1006 15.3946 18.7008 16.2272 18.4196C17.0606 18.1357 17.9915 17.9938 19.0202 17.9938C19.7943 17.9938 20.5521 18.0843 21.3001 18.2646C22.0456 18.4456 22.7109 18.7366 23.2962 19.139C23.8789 19.5439 24.3457 20.0544 24.6992 20.6709C25.0495 21.29 25.2253 22.0355 25.2253 22.9125C25.2253 23.8383 24.9779 24.6709 24.4798 25.4086C23.9825 26.1463 23.3197 26.7133 22.4968 27.1085C23.0638 27.3142 23.5489 27.5799 23.9512 27.908C24.3535 28.2329 24.6862 28.5935 24.9414 28.9881C25.1993 29.3826 25.3933 29.8084 25.5222 30.2622C25.6511 30.7186 25.7149 31.1854 25.7149 31.6652C25.7149 32.6275 25.5274 33.4601 25.1478 34.1646ZM31.3323 12.0008C30.5954 12.0008 29.999 11.4044 29.999 10.6675V2.66734C29.999 1.93036 30.5954 1.33398 31.3323 1.33398C32.0693 1.33398 32.6657 1.93036 32.6657 2.66734V10.6675C32.6657 11.4045 32.0693 12.0008 31.3323 12.0008ZM16.6657 12.0008C15.9287 12.0008 15.3323 11.4044 15.3323 10.6675V2.66734C15.3323 1.93036 15.9287 1.33398 16.6657 1.33398C17.4027 1.33398 17.999 1.93036 17.999 2.66734V10.6675C17.999 11.4045 17.4027 12.0008 16.6657 12.0008ZM35.235 36.996H32.1686V22.7835H27.9987V20.6709C28.6693 20.6552 29.2598 20.6168 29.7754 20.555C30.2917 20.4957 30.7454 20.387 31.14 20.2327C31.5345 20.0804 31.8776 19.8512 32.1686 19.5517C32.4629 19.2503 32.7285 18.8427 32.9681 18.329H35.235V36.996Z" fill="#0C5CFF"/>
</g>
<defs>
<clipPath id="clip0_3267_6319">
<rect width="48" height="48" fill="white"/>
</clipPath>
</defs>
</svg>
