<svg width="32" height="32" viewBox="0 0 32 32" fill="none" xmlns="http://www.w3.org/2000/svg">
<path fill-rule="evenodd" clip-rule="evenodd" d="M21.5996 2C23.8398 2 24.9608 1.99957 25.8164 2.43555C26.5689 2.81902 27.181 3.43109 27.5645 4.18359C28.0004 5.03924 28 6.16018 28 8.40039V23.5996C28 25.8398 28.0004 26.9608 27.5645 27.8164L27.4102 28.0918C27.0259 28.7183 26.4749 29.2289 25.8164 29.5645L25.4805 29.707C24.6623 29.999 23.5596 30 21.5996 30H10.4004L8.91602 29.9941C7.83288 29.9771 7.10387 29.9156 6.51953 29.707L6.18359 29.5645C5.52512 29.2289 4.97413 28.7183 4.58984 28.0918L4.43555 27.8164C3.99957 26.9608 4 25.8398 4 23.5996V8.40039C4 6.16018 3.99957 5.03924 4.43555 4.18359C4.81902 3.43109 5.43109 2.81902 6.18359 2.43555C6.82525 2.10861 7.61606 2.02631 8.91602 2.00586L10.4004 2H21.5996Z" fill="#FB327E"/>
<path fill-rule="evenodd" clip-rule="evenodd" d="M17.5351 10.1676C16.9932 10.0844 16.546 10.5366 16.546 11.0849V16.0496C16.546 16.3238 16.3238 16.5461 16.0496 16.5461H11.0849C10.5366 16.5461 10.0843 16.9932 10.1676 17.5351C10.6436 20.63 13.3179 23.0002 16.546 23.0002C20.1105 23.0002 23.0001 20.1106 23.0001 16.5461C23.0001 13.318 20.63 10.6437 17.5351 10.1676Z" fill="white"/>
<path opacity="0.7" fill-rule="evenodd" clip-rule="evenodd" d="M14.56 9C11.4891 9 8.99997 11.4891 8.99997 14.5601C8.99997 14.8891 9.26632 15.1554 9.59535 15.1554H14.56C14.8891 15.1554 15.1554 14.8891 15.1554 14.5601V9.59537C15.1554 9.26634 14.8891 9 14.56 9Z" fill="white"/>
</svg>
