<svg width="48" height="48" viewBox="0 0 48 48" fill="none" xmlns="http://www.w3.org/2000/svg">
<path fill-rule="evenodd" clip-rule="evenodd" d="M32.3994 3C35.7597 3 37.4411 2.99936 38.7246 3.65332C39.8534 4.22852 40.7715 5.14663 41.3467 6.27539C42.0006 7.55886 42 9.24027 42 12.6006V35.3994C42 38.7597 42.0006 40.4411 41.3467 41.7246L41.1152 42.1377C40.5388 43.0775 39.7123 43.8434 38.7246 44.3467L38.2207 44.5605C36.9934 44.9985 35.3394 45 32.3994 45H15.6006L13.374 44.9912C11.7493 44.9657 10.6558 44.8733 9.7793 44.5605L9.27539 44.3467C8.28768 43.8434 7.4612 43.0775 6.88477 42.1377L6.65332 41.7246C5.99936 40.4411 6 38.7597 6 35.3994V12.6006C6 9.24027 5.99936 7.55886 6.65332 6.27539C7.22852 5.14663 8.14663 4.22852 9.27539 3.65332C10.2379 3.16291 11.4241 3.03946 13.374 3.00879L15.6006 3H32.3994Z" fill="#FB327E"/>
<path fill-rule="evenodd" clip-rule="evenodd" d="M26.3025 15.2512C25.4895 15.1263 24.8189 15.8047 24.8189 16.6272V24.0742C24.8189 24.4855 24.4855 24.8189 24.0742 24.8189H16.6272C15.8047 24.8189 15.1263 25.4896 15.2512 26.3025C15.9653 30.9448 19.9767 34.5 24.8189 34.5C30.1656 34.5 34.5 30.1656 34.5 24.8189C34.5 19.9767 30.9448 15.9653 26.3025 15.2512Z" fill="white"/>
<path opacity="0.7" fill-rule="evenodd" clip-rule="evenodd" d="M21.8403 13.5C17.2339 13.5 13.5003 17.2337 13.5003 21.8401C13.5003 22.3336 13.8998 22.7331 14.3933 22.7331H21.8403C22.3339 22.7331 22.7334 22.3336 22.7334 21.8401V14.3931C22.7334 13.8995 22.3339 13.5 21.8403 13.5Z" fill="white"/>
</svg>
