<svg width="16" height="16" viewBox="0 0 16 16" fill="none" xmlns="http://www.w3.org/2000/svg">
<path d="M1 4.8C1 3.11984 1 2.27976 1.32698 1.63803C1.6146 1.07354 2.07354 0.614601 2.63803 0.32698C3.27976 0 4.11984 0 5.8 0H10.2C11.8802 0 12.7202 0 13.362 0.32698C13.9265 0.614601 14.3854 1.07354 14.673 1.63803C15 2.27976 15 3.11984 15 4.8V11.2C15 12.8802 15 13.7202 14.673 14.362C14.3854 14.9265 13.9265 15.3854 13.362 15.673C12.7202 16 11.8802 16 10.2 16H5.8C4.11984 16 3.27976 16 2.63803 15.673C2.07354 15.3854 1.6146 14.9265 1.32698 14.362C1 13.7202 1 12.8802 1 11.2V4.8Z" fill="#FB327E" style="fill:#FB327E;fill:color(display-p3 0.9843 0.1961 0.4941);fill-opacity:1;"/>
<path fill-rule="evenodd" clip-rule="evenodd" d="M6.99111 4.55451C6.32657 4.69531 5.71236 5.0129 5.21331 5.47377C4.71425 5.93463 4.34888 6.52168 4.15573 7.17294C3.96259 7.8242 3.94884 8.51553 4.11595 9.17395C4.28305 9.83238 4.62481 10.4335 5.10514 10.9138C5.58548 11.3942 6.18658 11.7359 6.84501 11.903C7.50343 12.0701 8.19476 12.0564 8.84602 11.8632C9.49728 11.6701 10.0843 11.3047 10.5452 10.8057C11.0061 10.3066 11.3236 9.69239 11.4644 9.02784C11.5091 8.81574 11.3388 8.62355 11.1226 8.62355H7.76195C7.66474 8.62355 7.57151 8.58493 7.50277 8.51619C7.43403 8.44745 7.39541 8.35422 7.39541 8.25701V4.89703C7.39541 4.68013 7.2039 4.5099 6.99111 4.55451Z" fill="white" style="fill:white;fill-opacity:1;"/>
<path opacity="0.75" fill-rule="evenodd" clip-rule="evenodd" d="M11.6394 7.78434H8.60937C8.51018 7.78434 8.41504 7.74493 8.3449 7.67479C8.27476 7.60465 8.23535 7.50951 8.23535 7.41032V4.3593C8.23535 4.13866 8.42306 3.96426 8.64019 4.00629C9.47413 4.16902 10.2399 4.57878 10.8379 5.18233C11.436 5.78587 11.8387 6.55532 11.9938 7.39071C12.0337 7.60713 11.8586 7.78434 11.6394 7.78434Z" fill="white" style="fill:white;fill-opacity:1;"/>
</svg>
