<svg width="48" height="48" viewBox="0 0 48 48" fill="none" xmlns="http://www.w3.org/2000/svg">
<path d="M29.7305 2.66992C34.2666 2.66992 36.5349 2.67187 38.2676 3.55469C39.7914 4.33125 41.0302 5.56988 41.8066 7.09375C42.6895 8.82642 42.6914 11.0945 42.6914 15.6309V32.3711C42.6914 36.9074 42.6895 39.1755 41.8066 40.9082C41.0302 42.4321 39.7914 43.6707 38.2676 44.4473C36.5349 45.3301 34.2666 45.332 29.7305 45.332H18.2402C13.7038 45.332 11.4358 45.3301 9.70312 44.4473C8.17915 43.6708 6.94065 42.4321 6.16406 40.9082C5.28122 39.1755 5.2793 36.9074 5.2793 32.3711V15.6309C5.2793 11.0945 5.28122 8.82642 6.16406 7.09375C6.94065 5.56983 8.17915 4.33119 9.70312 3.55469C11.4358 2.67184 13.7038 2.66992 18.2402 2.66992H29.7305ZM15.2988 31.2021C14.3053 31.2028 13.5 32.0073 13.5 33.001C13.5001 33.9946 14.3053 34.7992 15.2988 34.7998H24.8994C25.8935 34.7998 26.7011 33.995 26.7012 33.001C26.7012 32.0069 25.8935 31.2021 24.8994 31.2021H15.2988ZM15.2988 22.7998C14.3053 22.8004 13.5 23.6078 13.5 24.6016C13.5004 25.595 14.3055 26.3998 15.2988 26.4004H32.7012C33.6945 26.3998 34.4996 25.595 34.5 24.6016C34.5 23.6078 33.6947 22.8004 32.7012 22.7998H15.2988ZM15.2988 14.4004C14.3053 14.401 13.5 15.2084 13.5 16.2021C13.5007 17.1953 14.3057 18.0003 15.2988 18.001H32.7012C33.6943 18.0003 34.4993 17.1953 34.5 16.2021C34.5 15.2084 33.6947 14.401 32.7012 14.4004H15.2988Z" fill="#0D6BDE"/>
<path opacity="0.25" d="M13.5 33.0012C13.5 32.0071 14.3059 31.2012 15.3 31.2012H24.9C25.8941 31.2012 26.7 32.0071 26.7 33.0012C26.7 33.9953 25.8941 34.8012 24.9 34.8012H15.3C14.3059 34.8012 13.5 33.9953 13.5 33.0012Z" fill="#0D6BDE"/>
</svg>
