<svg width="48" height="48" viewBox="0 0 48 48" fill="none" xmlns="http://www.w3.org/2000/svg">
<path d="M29.7305 2.66992C34.2666 2.66992 36.5349 2.67187 38.2676 3.55469C39.7914 4.33125 41.0302 5.56988 41.8066 7.09375C42.6895 8.82642 42.6914 11.0945 42.6914 15.6309V32.3711C42.6914 36.9074 42.6895 39.1755 41.8066 40.9082C41.0302 42.4321 39.7914 43.6707 38.2676 44.4473C36.5349 45.3301 34.2666 45.332 29.7305 45.332H18.2402C13.7038 45.332 11.4358 45.3301 9.70312 44.4473C8.17915 43.6708 6.94065 42.4321 6.16406 40.9082C5.28122 39.1755 5.2793 36.9074 5.2793 32.3711V15.6309C5.2793 11.0945 5.28122 8.82642 6.16406 7.09375C6.94065 5.56983 8.17915 4.33119 9.70312 3.55469C11.4358 2.67184 13.7038 2.66992 18.2402 2.66992H29.7305ZM15 34.3516C14.1716 34.3516 13.5 35.0231 13.5 35.8516C13.5003 36.6797 14.1718 37.3516 15 37.3516H24C24.8282 37.3516 25.4997 36.6797 25.5 35.8516C25.5 35.0231 24.8284 34.3516 24 34.3516H15ZM15 28.0498C14.172 28.0498 13.5006 28.7219 13.5 29.5498C13.5 30.3782 14.1716 31.0498 15 31.0498H33C33.8284 31.0498 34.5 30.3782 34.5 29.5498C34.4994 28.7219 33.828 28.0498 33 28.0498H15ZM29.0479 13.334C28.5515 12.59 27.4825 12.526 26.9004 13.2051L20.7393 20.3945C20.295 20.9124 19.5318 21.0159 18.9639 20.6377L16.9717 19.3105C16.3755 18.9133 15.5734 19.0509 15.1436 19.624L13.4795 21.8418C12.8126 22.7317 13.4483 24.001 14.5605 24.001H33.6387C34.7153 23.9996 35.3572 22.7998 34.7607 21.9033L29.0479 13.334ZM15.2344 11.8516C14.1166 11.852 13.2103 12.7582 13.21 13.876C13.2103 14.9938 14.1166 15.8999 15.2344 15.9004C16.3523 15.9001 17.2585 14.9939 17.2588 13.876C17.2585 12.758 16.3523 11.8518 15.2344 11.8516Z" fill="#2057B1"/>
<path opacity="0.25" d="M24 34.3496C24.8284 34.3496 25.5 35.0212 25.5 35.8496C25.5 36.678 24.8284 37.3496 24 37.3496L15 37.3496C14.1716 37.3496 13.5 36.678 13.5 35.8496C13.5 35.0212 14.1716 34.3496 15 34.3496L24 34.3496Z" fill="#2057B1"/>
</svg>
