<svg width="16" height="16" viewBox="0 0 16 16" fill="none" xmlns="http://www.w3.org/2000/svg">
<path d="M12 0H4C2.34326 0 1 1.34314 1 3V13C1 14.6569 2.34326 16 4 16H12C13.6567 16 15 14.6569 15 13V3C15 1.34314 13.6567 0 12 0ZM4.5 4.49988H8.5C8.77637 4.49988 9 4.72351 9 4.99988C9 5.27625 8.77637 5.49988 8.5 5.49988H4.5C4.22363 5.49988 4 5.27625 4 4.99988C4 4.72351 4.22363 4.49988 4.5 4.49988ZM9.5 11.4999H4.5C4.22363 11.4999 4 11.2762 4 10.9999C4 10.7235 4.22363 10.4999 4.5 10.4999H9.5C9.77637 10.4999 10 10.7235 10 10.9999C10 11.2762 9.77637 11.4999 9.5 11.4999ZM11.5 8.49988H4.5C4.22363 8.49988 4 8.27625 4 7.99988C4 7.72351 4.22363 7.49988 4.5 7.49988H11.5C11.7764 7.49988 12 7.72351 12 7.99988C12 8.27625 11.7764 8.49988 11.5 8.49988Z" fill="#3579FD" style="fill:#3579FD;fill:color(display-p3 0.2078 0.4745 0.9922);fill-opacity:1;"/>
</svg>
