<svg width="48" height="48" viewBox="0 0 48 48" fill="none" xmlns="http://www.w3.org/2000/svg">
<path d="M29.7305 2.66992C34.2666 2.66992 36.5349 2.67187 38.2676 3.55469C39.7914 4.33125 41.0302 5.56988 41.8066 7.09375C42.6895 8.82642 42.6914 11.0945 42.6914 15.6309V32.3711C42.6914 36.9074 42.6895 39.1755 41.8066 40.9082C41.0302 42.4321 39.7914 43.6707 38.2676 44.4473C36.5349 45.3301 34.2666 45.332 29.7305 45.332H18.2402C13.7038 45.332 11.4358 45.3301 9.70312 44.4473C8.17915 43.6708 6.94065 42.4321 6.16406 40.9082C5.28122 39.1755 5.2793 36.9074 5.2793 32.3711V15.6309C5.2793 11.0945 5.28122 8.82642 6.16406 7.09375C6.94065 5.56983 8.17915 4.33119 9.70312 3.55469C11.4358 2.67184 13.7038 2.66992 18.2402 2.66992H29.7305ZM14.2822 29.5615C13.6862 29.5615 13.2018 30.0466 13.2012 30.6426V35.2305C13.2012 35.8269 13.6858 36.3115 14.2822 36.3115H21.5713C22.1671 36.3108 22.6523 35.8265 22.6523 35.2305V30.6426C22.6517 30.0471 22.1667 29.5623 21.5713 29.5615H14.2822ZM26.4316 29.5615C25.8356 29.5615 25.3512 30.0466 25.3506 30.6426V35.2305C25.3506 35.8269 25.8352 36.3115 26.4316 36.3115H33.7207C34.3166 36.3109 34.8018 35.8265 34.8018 35.2305V30.6426C34.8011 30.047 34.3162 29.5622 33.7207 29.5615H26.4316ZM14.2822 20.1016C13.6864 20.1016 13.2022 20.5841 13.2012 21.1797V25.7705C13.2012 26.3669 13.6858 26.8516 14.2822 26.8516H21.5713C22.1671 26.8509 22.6523 26.3665 22.6523 25.7705V21.1797C22.6513 20.5845 22.1665 20.1023 21.5713 20.1016H14.2822ZM26.4316 20.1016C25.8358 20.1016 25.3516 20.5841 25.3506 21.1797V25.7705C25.3506 26.367 25.8352 26.8516 26.4316 26.8516H33.7207C34.3166 26.8509 34.8017 26.3666 34.8018 25.7705V21.1797C34.8007 20.5845 34.316 20.1022 33.7207 20.1016H26.4316Z" fill="#23A52D"/>
<path opacity="0.25" d="M25.3506 30.6405C25.3506 30.0441 25.8341 29.5605 26.4306 29.5605H33.7206C34.3171 29.5605 34.8006 30.0441 34.8006 30.6405V35.2305C34.8006 35.827 34.3171 36.3105 33.7206 36.3105H26.4306C25.8341 36.3105 25.3506 35.827 25.3506 35.2305V30.6405Z" fill="#23A52D"/>
</svg>
