<svg width="16" height="16" viewBox="0 0 16 16" fill="none" xmlns="http://www.w3.org/2000/svg">
<path d="M1 4.8C1 3.11984 1 2.27976 1.32698 1.63803C1.6146 1.07354 2.07354 0.614601 2.63803 0.32698C3.27976 0 4.11984 0 5.8 0H10.2C11.8802 0 12.7202 0 13.362 0.32698C13.9265 0.614601 14.3854 1.07354 14.673 1.63803C15 2.27976 15 3.11984 15 4.8V11.2C15 12.8802 15 13.7202 14.673 14.362C14.3854 14.9265 13.9265 15.3854 13.362 15.673C12.7202 16 11.8802 16 10.2 16H5.8C4.11984 16 3.27976 16 2.63803 15.673C2.07354 15.3854 1.6146 14.9265 1.32698 14.362C1 13.7202 1 12.8802 1 11.2V4.8Z" fill="#3579FD" style="fill:#3579FD;fill:color(display-p3 0.2078 0.4745 0.9922);fill-opacity:1;"/>
<path d="M11.5996 10C11.5996 10.0552 11.5552 10.0996 11.5 10.0996L4.5 10.0996C4.44477 10.0996 4.40039 10.0552 4.40039 10C4.40039 9.94477 4.44477 9.90039 4.5 9.90039L11.5 9.90039C11.5552 9.90039 11.5996 9.94477 11.5996 10Z" fill="white" stroke="white" style="fill:white;fill-opacity:1;stroke:white;stroke-opacity:1;" stroke-width="0.8"/>
<path opacity="0.75" d="M8.5 11.5C8.77614 11.5 9 11.7239 9 12C9 12.2761 8.77614 12.5 8.5 12.5L4.5 12.5C4.22386 12.5 4 12.2761 4 12C4 11.7239 4.22386 11.5 4.5 11.5L8.5 11.5Z" fill="white" style="fill:white;fill-opacity:1;"/>
<path d="M4.7162 6.37839L4.1 7.2C3.85279 7.52962 4.08798 8 4.5 8H11.5657C11.9651 8 12.2033 7.55493 11.9818 7.22265L9.86612 4.04917C9.68233 3.77349 9.28609 3.74956 9.07046 4.00113L6.78834 6.66361C6.62377 6.8556 6.34176 6.89451 6.13136 6.75424L5.39355 6.26237C5.17276 6.11517 4.87542 6.1661 4.7162 6.37839Z" fill="white" style="fill:white;fill-opacity:1;"/>
<path d="M4 4.25C4 3.83579 4.33579 3.5 4.75 3.5C5.16421 3.5 5.5 3.83579 5.5 4.25C5.5 4.66421 5.16421 5 4.75 5C4.33579 5 4 4.66421 4 4.25Z" fill="white" style="fill:white;fill-opacity:1;"/>
</svg>
