<svg width="16" height="16" viewBox="0 0 16 16" fill="none" xmlns="http://www.w3.org/2000/svg">
<path d="M1 4.8C1 3.11984 1 2.27976 1.32698 1.63803C1.6146 1.07354 2.07354 0.614601 2.63803 0.32698C3.27976 0 4.11984 0 5.8 0H10.2C11.8802 0 12.7202 0 13.362 0.32698C13.9265 0.614601 14.3854 1.07354 14.673 1.63803C15 2.27976 15 3.11984 15 4.8V11.2C15 12.8802 15 13.7202 14.673 14.362C14.3854 14.9265 13.9265 15.3854 13.362 15.673C12.7202 16 11.8802 16 10.2 16H5.8C4.11984 16 3.27976 16 2.63803 15.673C2.07354 15.3854 1.6146 14.9265 1.32698 14.362C1 13.7202 1 12.8802 1 11.2V4.8Z" fill="#019F5C" style="fill:#019F5C;fill:color(display-p3 0.0039 0.6235 0.3608);fill-opacity:1;"/>
<rect x="4" y="6.3999" width="3.5" height="2.5" rx="0.4" fill="white" style="fill:white;fill-opacity:1;"/>
<rect x="8.5" y="6.3999" width="3.5" height="2.5" rx="0.4" fill="white" style="fill:white;fill-opacity:1;"/>
<rect x="4" y="9.90405" width="3.5" height="2.5" rx="0.4" fill="white" style="fill:white;fill-opacity:1;"/>
<rect opacity="0.75" x="8.5" y="9.90405" width="3.5" height="2.5" rx="0.4" fill="white" style="fill:white;fill-opacity:1;"/>
</svg>
