<svg width="48" height="48" viewBox="0 0 48 48" fill="none" xmlns="http://www.w3.org/2000/svg">
<path d="M29.7305 2.66992C34.2666 2.66992 36.5349 2.67187 38.2676 3.55469C39.7914 4.33125 41.0302 5.56988 41.8066 7.09375C42.6895 8.82642 42.6914 11.0945 42.6914 15.6309V32.3711C42.6914 36.9074 42.6895 39.1755 41.8066 40.9082C41.0302 42.4321 39.7914 43.6707 38.2676 44.4473C36.5349 45.3301 34.2666 45.332 29.7305 45.332H18.2402C13.7038 45.332 11.4358 45.3301 9.70312 44.4473C8.17915 43.6708 6.94065 42.4321 6.16406 40.9082C5.28122 39.1755 5.2793 36.9074 5.2793 32.3711V15.6309C5.2793 11.0945 5.28122 8.82642 6.16406 7.09375C6.94065 5.56983 8.17915 4.33119 9.70312 3.55469C11.4358 2.67184 13.7038 2.66992 18.2402 2.66992H29.7305ZM15.9814 21.5576C14.7767 20.863 13.7993 21.4265 13.7988 22.8174V27.9531C13.7991 29.3448 14.7764 31.0418 15.9814 31.7383L20.4316 34.3076C21.6365 35.0026 22.6135 34.4357 22.6143 33.0449V26.6494C22.6143 25.9536 22.1269 25.1052 21.5244 24.7568L15.9814 21.5576ZM34.2012 22.8174C34.2007 21.4261 33.2208 20.8622 32.0156 21.5576L26.4756 24.7568C25.8737 25.1057 25.3828 25.9541 25.3828 26.6494V33.0449C25.3835 34.4356 26.3636 34.9994 27.5684 34.3047L32.0156 31.7383C33.2211 31.0422 34.2009 29.3452 34.2012 27.9531V22.8174ZM26.1826 14.0225C24.9772 13.3275 23.0228 13.3275 21.8174 14.0225L17.3525 16.6006C16.1502 17.2965 16.1498 18.4244 17.3525 19.1201L22.9072 22.3281C23.5093 22.6756 24.4869 22.6747 25.0898 22.3281L30.6445 19.1201C31.8498 18.424 31.8498 17.2967 30.6445 16.6006L26.1826 14.0225Z" fill="#23A52D"/>
<path opacity="0.25" fill-rule="evenodd" clip-rule="evenodd" d="M34.2002 22.8164C34.2002 21.4241 33.2211 20.8599 32.0153 21.556L26.4766 24.754C25.8743 25.1026 25.3828 25.9503 25.3828 26.6459V33.042C25.3831 34.4333 26.3627 34.9972 27.5677 34.3023L32.0153 31.7359C33.2209 31.0398 34.1999 29.3442 34.2002 27.952V22.8164Z" fill="#23A52D"/>
</svg>
