<svg width="16" height="16" viewBox="0 0 16 16" fill="none" xmlns="http://www.w3.org/2000/svg">
<path d="M10.2002 0C11.8802 4.93713e-10 12.7206 0.00018069 13.3623 0.327148C13.9265 0.614723 14.3853 1.07347 14.6729 1.6377C14.9998 2.27941 15 3.11978 15 4.7998V11.2002C15 12.8802 14.9998 13.7206 14.6729 14.3623C14.3853 14.9265 13.9265 15.3853 13.3623 15.6729C12.7206 15.9998 11.8802 16 10.2002 16H5.7998C4.11978 16 3.27941 15.9998 2.6377 15.6729C2.07347 15.3853 1.61472 14.9265 1.32715 14.3623C1.00018 13.7206 1 12.8802 1 11.2002V4.7998C1 3.11978 1.00018 2.27941 1.32715 1.6377C1.61472 1.07347 2.07347 0.614723 2.6377 0.327148C3.27941 0.000180663 4.11978 4.91612e-10 5.7998 0H10.2002Z" fill="#019F5C" style="fill:#019F5C;fill:color(display-p3 0.0039 0.6235 0.3608);fill-opacity:1;"/>
<path opacity="0.75" fill-rule="evenodd" clip-rule="evenodd" d="M11.7061 7.46871C11.7061 6.96277 11.3503 6.75773 10.9121 7.01071L8.89941 8.17281C8.68055 8.29947 8.50195 8.60752 8.50195 8.86031V11.1845C8.50207 11.6901 8.85802 11.8951 9.2959 11.6425L10.9121 10.7099C11.3502 10.457 11.7059 9.84082 11.7061 9.33492V7.46871Z" fill="white" style="fill:white;fill-opacity:1;"/>
<path fill-rule="evenodd" clip-rule="evenodd" d="M5.08594 7.01085C4.6479 6.75811 4.29297 6.96301 4.29297 7.46885V9.33506C4.29308 9.84086 4.64797 10.457 5.08594 10.7101L6.70312 11.6437C7.14105 11.8963 7.49598 11.6903 7.49609 11.1847V8.86045C7.49609 8.60749 7.31869 8.29944 7.09961 8.17295L5.08594 7.01085ZM8.79297 4.27256C8.3549 4.01981 7.64415 4.01984 7.20605 4.27256L5.58398 5.20909C5.14682 5.46198 5.14669 5.87226 5.58398 6.1251L7.60254 7.29014C7.8214 7.4165 8.17638 7.41625 8.39551 7.29014L10.4141 6.1251C10.8521 5.87214 10.8521 5.46204 10.4141 5.20909L8.79297 4.27256Z" fill="white" style="fill:white;fill-opacity:1;"/>
</svg>
