<svg width="48" height="48" viewBox="0 0 48 48" fill="none" xmlns="http://www.w3.org/2000/svg">
<path d="M3 17.7C3 15.1798 3 13.9196 3.49047 12.957C3.9219 12.1103 4.61031 11.4219 5.45704 10.9905C6.41965 10.5 7.67976 10.5 10.2 10.5H21C25.2004 10.5 27.3006 10.5 28.9049 11.3175C30.3161 12.0365 31.4635 13.1839 32.1825 14.5951C33 16.1994 33 18.2996 33 22.5V30.3C33 32.8202 33 34.0804 32.5095 35.043C32.0781 35.8897 31.3897 36.5781 30.543 37.0095C29.5804 37.5 28.3202 37.5 25.8 37.5H15C10.7996 37.5 8.69941 37.5 7.09507 36.6825C5.68386 35.9635 4.5365 34.8161 3.81745 33.4049C3 31.8006 3 29.7004 3 25.5V17.7Z" fill="#0C5CFF"/>
<path d="M43.5 33V15L38.7 18.6C37.9446 19.1666 37.5 20.0557 37.5 21V27C37.5 27.9443 37.9446 28.8334 38.7 29.4L43.5 33Z" fill="#0C5CFF"/>
<path d="M42.4189 13.5586C42.9644 13.1495 43.6959 13.0838 44.3057 13.3887C44.9155 13.6936 45.2988 14.3182 45.2988 15V33C45.2988 33.6818 44.9155 34.3064 44.3057 34.6113C43.6959 34.9162 42.9644 34.8505 42.4189 34.4414L37.6201 30.8408C36.4115 29.9343 35.7012 28.5108 35.7012 27V21C35.7012 19.4892 36.4114 18.0657 37.6201 17.1592L42.4189 13.5586ZM39.2988 27C39.2988 27.3777 39.4771 27.7343 39.7793 27.9609L41.7012 29.3994V18.5977L39.7793 20.0391C39.4771 20.2657 39.2988 20.6223 39.2988 21V27Z" fill="#0C5CFF"/>
</svg>
