<svg preserveAspectRatio="none" width="100%" height="100%" overflow="visible" style="display: block;" viewBox="0 0 88.4766 15.5142" fill="none" xmlns="http://www.w3.org/2000/svg">
<g id="Group">
<path id="Vector" d="M2.73096 15.5142H16.9336C18.7349 15.5142 19.6729 14.5845 19.6729 12.8081V2.70605C19.6729 0.92969 18.7349 0 16.9336 0H2.73096C0.93799 0 0 0.92139 0 2.70605V12.8081C0 14.5845 0.93799 15.5142 2.73096 15.5142ZM2.83887 13.8623C2.0752 13.8623 1.65186 13.4639 1.65186 12.6587V2.85547C1.65186 2.05029 2.0752 1.65186 2.83887 1.65186H6.62402V13.8623H2.83887ZM16.8257 1.65186C17.5894 1.65186 18.0127 2.05029 18.0127 2.85547V12.6587C18.0127 13.4639 17.5894 13.8623 16.8257 13.8623H8.1929V1.65186H16.8257ZM4.99707 4.68994C5.2959 4.68994 5.54492 4.43262 5.54492 4.15039C5.54492 3.86816 5.2959 3.61914 4.99707 3.61914H3.29541C2.99658 3.61914 2.74756 3.86816 2.74756 4.15039C2.74756 4.43262 2.99658 4.68994 3.29541 4.68994H4.99707ZM4.99707 6.9229C5.2959 6.9229 5.54492 6.6738 5.54492 6.3833C5.54492 6.1011 5.2959 5.8521 4.99707 5.8521H3.29541C2.99658 5.8521 2.74756 6.1011 2.74756 6.3833C2.74756 6.6738 2.99658 6.9229 3.29541 6.9229H4.99707ZM4.99707 9.1475C5.2959 9.1475 5.54492 8.9067 5.54492 8.6162C5.54492 8.334 5.2959 8.0933 4.99707 8.0933H3.29541C2.99658 8.0933 2.74756 8.334 2.74756 8.6162C2.74756 8.9067 2.99658 9.1475 3.29541 9.1475H4.99707Z" fill="var(--fill-0, #686F79)"/>
<path id="Vector_2" d="M51.3984 14.0938L45.3203 8.1484C45.1094 7.9375 45 7.7031 45 7.4297C45 7.1562 45.1094 6.9062 45.3281 6.7031L51.4062 0.76562C51.5781 0.59375 51.7969 0.5 52.0469 0.5C52.5703 0.5 52.9766 0.90625 52.9766 1.42188C52.9766 1.67188 52.875 1.91406 52.6953 2.09375L47.2266 7.4219L52.6953 12.7656C52.875 12.9453 52.9766 13.1797 52.9766 13.4375C52.9766 13.9531 52.5703 14.3594 52.0469 14.3594C51.7969 14.3594 51.5781 14.2656 51.3984 14.0938Z" fill="var(--fill-0, #686F79)"/>
<path id="Vector_3" d="M81.4297 14.3594C81.6875 14.3594 81.8984 14.2656 82.0781 14.0938L88.1562 8.1562C88.3672 7.9375 88.4766 7.7109 88.4766 7.4297C88.4766 7.1562 88.375 6.9141 88.1562 6.7109L82.0781 0.76562C81.8984 0.59375 81.6875 0.5 81.4297 0.5C80.9062 0.5 80.5 0.90625 80.5 1.42188C80.5 1.67188 80.6094 1.91406 80.7812 2.09375L86.2578 7.4375L80.7812 12.7656C80.6016 12.9531 80.5 13.1797 80.5 13.4375C80.5 13.9531 80.9062 14.3594 81.4297 14.3594Z" fill="var(--fill-0, #BDBCBC)"/>
</g>
</svg>
