<svg preserveAspectRatio="none" width="100%" height="100%" overflow="visible" style="display: block;" viewBox="0 0 13 14" fill="none" xmlns="http://www.w3.org/2000/svg">
<g id="svg-312960091_1056">
<path id="Vector" d="M6.33008 6.73242C6.5 6.73242 6.63477 6.67969 6.74023 6.56836L9.14258 4.14844C9.27148 4.01953 9.33008 3.87891 9.33008 3.71484C9.33008 3.55664 9.26562 3.4043 9.14258 3.28711L6.74023 0.84375C6.63477 0.726562 6.5 0.667969 6.33008 0.667969C6.01367 0.667969 5.76172 0.931641 5.76172 1.25391C5.76172 1.41211 5.82031 1.54102 5.91992 1.65234L7.32031 3.02344C7.04492 2.98242 6.76367 2.95898 6.48242 2.95898C3.58203 2.95898 1.26172 5.2793 1.26172 8.18555C1.26172 11.0918 3.59961 13.4297 6.5 13.4297C9.40625 13.4297 11.7383 11.0918 11.7383 8.18555C11.7383 7.83398 11.4922 7.58203 11.1406 7.58203C10.8008 7.58203 10.5723 7.83398 10.5723 8.18555C10.5723 10.4473 8.76172 12.2637 6.5 12.2637C4.24414 12.2637 2.42773 10.4473 2.42773 8.18555C2.42773 5.90625 4.22656 4.10156 6.48242 4.10156C6.86328 4.10156 7.21484 4.13086 7.52539 4.18359L5.92578 5.76562C5.82031 5.87109 5.76172 6 5.76172 6.1582C5.76172 6.48047 6.01367 6.73242 6.33008 6.73242Z" fill="var(--fill-0, #787878)"/>
</g>
</svg>
