<svg width="53" height="53" viewBox="0 0 53 53" fill="none" xmlns="http://www.w3.org/2000/svg">
<path fill-rule="evenodd" clip-rule="evenodd" d="M19.9971 32.0699C19.5711 31.5314 19.0536 30.4304 18.1326 29.0939C17.6106 28.3379 16.3161 26.9144 15.9306 26.1914C15.5961 25.5524 15.6321 25.2659 15.7116 24.7364C15.8526 23.7944 16.8186 23.0609 17.8491 23.1599C18.6276 23.2334 19.2876 23.7479 19.8816 24.2339C20.2401 24.5264 20.6811 25.0949 20.9466 25.4159C21.1911 25.7099 21.2511 25.8314 21.5121 26.1794C21.8571 26.6399 21.9651 26.8679 21.8331 26.3609C21.7266 25.6169 21.5526 24.3464 21.3006 23.2229C21.1086 22.3709 21.0621 22.2374 20.8791 21.5834C20.6856 20.8874 20.5866 20.3999 20.4051 19.6619C20.2791 19.1399 20.0526 18.0734 19.9911 17.4734C19.9056 16.6529 19.8606 15.3149 20.3871 14.6999C20.7996 14.2184 21.7461 14.0729 22.3326 14.3699C23.1006 14.7584 23.5371 15.8744 23.7366 16.3199C24.0951 17.1209 24.3171 18.0464 24.5106 19.2614C24.7566 20.8079 25.2096 22.9544 25.2246 23.4059C25.2606 22.8524 25.1226 21.6869 25.2186 21.1559C25.3056 20.6744 25.7106 20.1149 26.2176 19.9634C26.6466 19.8359 27.1491 19.7894 27.5916 19.8809C28.0611 19.9769 28.5561 20.3129 28.7406 20.6294C29.2836 21.5654 29.2941 23.4779 29.3166 23.3759C29.4456 22.8119 29.4231 21.5324 29.7426 20.9999C29.9526 20.6489 30.4881 20.3324 30.7731 20.2814C31.2141 20.2034 31.7556 20.1794 32.2191 20.2694C32.5926 20.3429 33.0981 20.7869 33.2346 20.9999C33.5616 21.5159 33.7476 22.9754 33.8031 23.4869C33.8256 23.6984 33.9141 22.8989 34.2426 22.3829C34.8516 21.4244 37.0071 21.2384 37.0896 23.3414C37.1271 24.3224 37.1196 24.2774 37.1196 24.9374C37.1196 25.7129 37.1016 26.1794 37.0596 26.7404C37.0131 27.3404 36.8841 28.6964 36.6966 29.3534C36.5676 29.8049 36.1401 30.8204 35.7186 31.4294C35.7186 31.4294 34.1076 33.3044 33.9321 34.1489C33.7551 34.9919 33.8136 34.9979 33.7791 35.5964C33.7446 36.1934 33.9606 36.9794 33.9606 36.9794C33.9606 36.9794 32.7576 37.1354 32.1096 37.0319C31.5231 36.9374 30.7971 35.7704 30.6096 35.4134C30.3516 34.9214 29.8011 35.0159 29.5866 35.3789C29.2491 35.9534 28.5231 36.9839 28.0101 37.0484C27.0081 37.1744 24.9291 37.0949 23.3016 37.0784C23.3016 37.0784 23.5791 35.5619 22.9611 35.0414C22.5036 34.6529 21.7161 33.8654 21.2451 33.4514L19.9971 32.0699Z" fill="white"/>
<path fill-rule="evenodd" clip-rule="evenodd" d="M19.9971 32.0699C19.5711 31.5314 19.0536 30.4304 18.1326 29.0939C17.6106 28.3379 16.3161 26.9144 15.9306 26.1914C15.5961 25.5524 15.6321 25.2659 15.7116 24.7364C15.8526 23.7944 16.8186 23.0609 17.8491 23.1599C18.6276 23.2334 19.2876 23.7479 19.8816 24.2339C20.2401 24.5264 20.6811 25.0949 20.9466 25.4159C21.1911 25.7099 21.2511 25.8314 21.5121 26.1794C21.8571 26.6399 21.9651 26.8679 21.8331 26.3609C21.7266 25.6169 21.5526 24.3464 21.3006 23.2229C21.1086 22.3709 21.0621 22.2374 20.8791 21.5834C20.6856 20.8874 20.5866 20.3999 20.4051 19.6619C20.2791 19.1399 20.0526 18.0734 19.9911 17.4734C19.9056 16.6529 19.8606 15.3149 20.3871 14.6999C20.7996 14.2184 21.7461 14.0729 22.3326 14.3699C23.1006 14.7584 23.5371 15.8744 23.7366 16.3199C24.0951 17.1209 24.3171 18.0464 24.5106 19.2614C24.7566 20.8079 25.2096 22.9544 25.2246 23.4059C25.2606 22.8524 25.1226 21.6869 25.2186 21.1559C25.3056 20.6744 25.7106 20.1149 26.2176 19.9634C26.6466 19.8359 27.1491 19.7894 27.5916 19.8809C28.0611 19.9769 28.5561 20.3129 28.7406 20.6294C29.2836 21.5654 29.2941 23.4779 29.3166 23.3759C29.4456 22.8119 29.4231 21.5324 29.7426 20.9999C29.9526 20.6489 30.4881 20.3324 30.7731 20.2814C31.2141 20.2034 31.7556 20.1794 32.2191 20.2694C32.5926 20.3429 33.0981 20.7869 33.2346 20.9999C33.5616 21.5159 33.7476 22.9754 33.8031 23.4869C33.8256 23.6984 33.9141 22.8989 34.2426 22.3829C34.8516 21.4244 37.0071 21.2384 37.0896 23.3414C37.1271 24.3224 37.1196 24.2774 37.1196 24.9374C37.1196 25.7129 37.1016 26.1794 37.0596 26.7404C37.0131 27.3404 36.8841 28.6964 36.6966 29.3534C36.5676 29.8049 36.1401 30.8204 35.7186 31.4294C35.7186 31.4294 34.1076 33.3044 33.9321 34.1489C33.7551 34.9919 33.8136 34.9979 33.7791 35.5964C33.7446 36.1934 33.9606 36.9794 33.9606 36.9794C33.9606 36.9794 32.7576 37.1354 32.1096 37.0319C31.5231 36.9374 30.7971 35.7704 30.6096 35.4134C30.3516 34.9214 29.8011 35.0159 29.5866 35.3789C29.2491 35.9534 28.5231 36.9839 28.0101 37.0484C27.0081 37.1744 24.9291 37.0949 23.3016 37.0784C23.3016 37.0784 23.5791 35.5619 22.9611 35.0414C22.5036 34.6529 21.7161 33.8654 21.2451 33.4514L19.9971 32.0699Z" stroke="black" stroke-width="1.125" stroke-linecap="round" stroke-linejoin="round"/>
<path d="M32.3496 32.6016V27.4131" stroke="black" stroke-width="1.125" stroke-linecap="round"/>
<path d="M29.3262 32.6192L29.3022 27.4097" stroke="black" stroke-width="1.125" stroke-linecap="round"/>
<path d="M26.332 27.457L26.3635 32.596" stroke="black" stroke-width="1.125" stroke-linecap="round"/>
</svg>
