<svg width="16" height="16" viewBox="0 0 16 16" fill="none" xmlns="http://www.w3.org/2000/svg">
<path fill-rule="evenodd" clip-rule="evenodd" fill="#000000" d="M1 4.8C1 3.11984 1 2.27976 1.32698 1.63803C1.6146 1.07354 2.07354 0.614601 2.63803 0.32698C3.27976 0 4.11984 0 5.8 0H10.2C11.8802 0 12.7202 0 13.362 0.32698C13.9265 0.614601 14.3854 1.07354 14.673 1.63803C15 2.27976 15 3.11984 15 4.8V11.2C15 12.8802 15 13.7202 14.673 14.362C14.3854 14.9265 13.9265 15.3854 13.362 15.673C12.7202 16 11.8802 16 10.2 16H5.8C4.11984 16 3.27976 16 2.63803 15.673C2.07354 15.3854 1.6146 14.9265 1.32698 14.362C1 13.7202 1 12.8802 1 11.2V4.8Z M4.4 6.3999H7.1C7.3209 6.3999 7.5 6.579 7.5 6.7999V8.4999C7.5 8.7208 7.3209 8.8999 7.1 8.8999H4.4C4.1791 8.8999 4 8.7208 4 8.4999V6.7999C4 6.579 4.1791 6.3999 4.4 6.3999Z M8.9 6.3999H11.6C11.8209 6.3999 12 6.579 12 6.7999V8.4999C12 8.7208 11.8209 8.8999 11.6 8.8999H8.9C8.6791 8.8999 8.5 8.7208 8.5 8.4999V6.7999C8.5 6.579 8.6791 6.3999 8.9 6.3999Z M4.4 9.90405H7.1C7.3209 9.90405 7.5 10.0832 7.5 10.3041V12.0241C7.5 12.245 7.3209 12.4241 7.1 12.4241H4.4C4.1791 12.4241 4 12.245 4 12.0241V10.3041C4 10.0832 4.1791 9.90405 4.4 9.90405Z M8.9 9.90405H11.6C11.8209 9.90405 12 10.0832 12 10.3041V12.0241C12 12.245 11.8209 12.4241 11.6 12.4241H8.9C8.6791 12.4241 8.5 12.245 8.5 12.0241V10.3041C8.5 10.0832 8.6791 9.90405 8.9 9.90405Z"/>
</svg>
