<svg width="16" height="16" viewBox="0 0 16 16" fill="none" xmlns="http://www.w3.org/2000/svg">
<path fill-rule="evenodd" clip-rule="evenodd" d="M10.7998 1C11.9199 1 12.4804 0.999786 12.9082 1.21777C13.2845 1.40951 13.5905 1.71554 13.7822 2.0918C14.0002 2.51962 14 3.08009 14 4.2002V11.7998C14 12.9199 14.0002 13.4804 13.7822 13.9082L13.7051 14.0459C13.5129 14.3592 13.2374 14.6145 12.9082 14.7822L12.7402 14.8535C12.3311 14.9995 11.7798 15 10.7998 15H5.2002L4.45801 14.9971C3.91644 14.9886 3.55193 14.9578 3.25977 14.8535L3.0918 14.7822C2.76256 14.6145 2.48707 14.3592 2.29492 14.0459L2.21777 13.9082C1.99979 13.4804 2 12.9199 2 11.7998V4.2002C2 3.08009 1.99979 2.51962 2.21777 2.0918C2.40951 1.71554 2.71554 1.40951 3.0918 1.21777C3.41263 1.0543 3.80803 1.01315 4.45801 1.00293L5.2002 1H10.7998Z" fill="#0D6BDE"/>
<path d="M10.5 4.40039C10.8314 4.40039 11.0996 4.66863 11.0996 5C11.0996 5.33137 10.8314 5.59961 10.5 5.59961H5.5C5.16863 5.59961 4.90039 5.33137 4.90039 5C4.90039 4.66863 5.16863 4.40039 5.5 4.40039H10.5Z" fill="white"/>
<path d="M10.5 7.40039C10.8314 7.40039 11.0996 7.66863 11.0996 8C11.0996 8.33137 10.8314 8.59961 10.5 8.59961H5.5C5.16863 8.59961 4.90039 8.33137 4.90039 8C4.90039 7.66863 5.16863 7.40039 5.5 7.40039H10.5Z" fill="white"/>
<path opacity="0.7" d="M8.5 10.4004C8.83137 10.4004 9.09961 10.6686 9.09961 11C9.09961 11.3314 8.83137 11.5996 8.5 11.5996H5.5C5.16863 11.5996 4.90039 11.3314 4.90039 11C4.90039 10.6686 5.16863 10.4004 5.5 10.4004H8.5Z" fill="white"/>
</svg>
