<svg width="16" height="16" viewBox="0 0 16 16" fill="none" xmlns="http://www.w3.org/2000/svg">
<path fill-rule="evenodd" clip-rule="evenodd" d="M10.7998 1C11.9199 1 12.4804 0.999786 12.9082 1.21777C13.2845 1.40951 13.5905 1.71554 13.7822 2.0918C14.0002 2.51962 14 3.08009 14 4.2002V11.7998C14 12.9199 14.0002 13.4804 13.7822 13.9082L13.7051 14.0459C13.5129 14.3592 13.2374 14.6145 12.9082 14.7822L12.7402 14.8535C12.3311 14.9995 11.7798 15 10.7998 15H5.2002L4.45801 14.9971C3.91644 14.9886 3.55193 14.9578 3.25977 14.8535L3.0918 14.7822C2.76256 14.6145 2.48707 14.3592 2.29492 14.0459L2.21777 13.9082C1.99979 13.4804 2 12.9199 2 11.7998V4.2002C2 3.08009 1.99979 2.51962 2.21777 2.0918C2.40951 1.71554 2.71554 1.40951 3.0918 1.21777C3.41263 1.0543 3.80803 1.01315 4.45801 1.00293L5.2002 1H10.7998Z" fill="#23A52D"/>
<path d="M5.32715 7.18546C4.92557 6.95392 4.59978 7.14174 4.59961 7.60538V9.31729C4.59971 9.7812 4.92547 10.3469 5.32715 10.579L6.81055 11.4355C7.21217 11.6671 7.53784 11.4782 7.53809 11.0146V8.88272C7.53809 8.65079 7.37563 8.36799 7.1748 8.25186L5.32715 7.18546ZM8.72754 4.67374C8.32575 4.44209 7.67425 4.44209 7.27246 4.67374L5.78418 5.53311C5.3834 5.76507 5.38326 6.14105 5.78418 6.37296L7.63574 7.44229C7.83644 7.55811 8.16228 7.55783 8.36328 7.44229L10.2148 6.37296C10.6166 6.14093 10.6166 5.76515 10.2148 5.53311L8.72754 4.67374Z" fill="white"/>
<path opacity="0.7" d="M10.6719 7.18522C11.0736 6.9534 11.4002 7.14138 11.4004 7.60514V9.31705C11.4003 9.78108 11.0737 10.3467 10.6719 10.5788L9.18945 11.4342C8.78788 11.6658 8.46118 11.4779 8.46094 11.0143V8.88248C8.46094 8.65072 8.62457 8.36792 8.8252 8.25162L10.6719 7.18522Z" fill="white"/>
</svg>
