<svg width="16" height="16" viewBox="0 0 16 16" fill="none" xmlns="http://www.w3.org/2000/svg">
<path d="M10.7998 1C11.9199 1 12.4804 0.999786 12.9082 1.21777C13.2845 1.40951 13.5905 1.71554 13.7822 2.0918C14.0002 2.51962 14 3.08009 14 4.2002V11.7998C14 12.9199 14.0002 13.4804 13.7822 13.9082L13.7051 14.0459C13.5129 14.3592 13.2374 14.6145 12.9082 14.7822L12.7402 14.8535C12.3311 14.9995 11.7798 15 10.7998 15H5.2002L4.45801 14.9971C3.91644 14.9886 3.55193 14.9578 3.25977 14.8535L3.0918 14.7822C2.76256 14.6145 2.48707 14.3592 2.29492 14.0459L2.21777 13.9082C1.99979 13.4804 2 12.9199 2 11.7998V4.2002C2 3.08009 1.99979 2.51962 2.21777 2.0918C2.40951 1.71554 2.71554 1.40951 3.0918 1.21777C3.41263 1.0543 3.80803 1.01315 4.45801 1.00293L5.2002 1H10.7998ZM5.32715 7.18555C4.92557 6.95402 4.59978 7.14183 4.59961 7.60547V9.31738C4.59971 9.78129 4.92547 10.3469 5.32715 10.5791L6.81055 11.4355C7.21217 11.6672 7.53784 11.4782 7.53809 11.0146V8.88281C7.53809 8.65088 7.37563 8.36808 7.1748 8.25195L5.32715 7.18555ZM11.4004 7.60547C11.4002 7.14171 11.0736 6.95373 10.6719 7.18555L8.8252 8.25195C8.62457 8.36824 8.46094 8.65105 8.46094 8.88281V11.0146C8.46118 11.4782 8.78788 11.6662 9.18945 11.4346L10.6719 10.5791C11.0737 10.3471 11.4003 9.78141 11.4004 9.31738V7.60547ZM8.72754 4.67383C8.32575 4.44218 7.67425 4.44218 7.27246 4.67383L5.78418 5.5332C5.3834 5.76516 5.38326 6.14114 5.78418 6.37305L7.63574 7.44238C7.83644 7.5582 8.16228 7.55792 8.36328 7.44238L10.2148 6.37305C10.6166 6.14102 10.6166 5.76524 10.2148 5.5332L8.72754 4.67383Z" fill="#000001"/>
</svg>
