<svg width="16" height="16" viewBox="0 0 16 16" fill="none" xmlns="http://www.w3.org/2000/svg">
<path d="M10.7998 1C11.9199 1 12.4804 0.999786 12.9082 1.21777C13.2845 1.40951 13.5905 1.71554 13.7822 2.0918C14.0002 2.51962 14 3.08009 14 4.2002V11.7998C14 12.9199 14.0002 13.4804 13.7822 13.9082L13.7051 14.0459C13.5129 14.3592 13.2374 14.6145 12.9082 14.7822L12.7402 14.8535C12.3311 14.9995 11.7798 15 10.7998 15H5.2002L4.45801 14.9971C3.91644 14.9886 3.55193 14.9578 3.25977 14.8535L3.0918 14.7822C2.76256 14.6145 2.48707 14.3592 2.29492 14.0459L2.21777 13.9082C1.99979 13.4804 2 12.9199 2 11.7998V4.2002C2 3.08009 1.99979 2.51962 2.21777 2.0918C2.40951 1.71554 2.71554 1.40951 3.0918 1.21777C3.41263 1.0543 3.80803 1.01315 4.45801 1.00293L5.2002 1H10.7998ZM5 11.2998C4.66869 11.2998 4.40049 11.5681 4.40039 11.8994C4.40039 12.2308 4.66863 12.499 5 12.499H8.5C8.83137 12.499 9.09961 12.2308 9.09961 11.8994C9.09951 11.5681 8.83131 11.2998 8.5 11.2998H5ZM5 8.90039C4.66863 8.90039 4.40039 9.16863 4.40039 9.5C4.40039 9.83137 4.66863 10.0996 5 10.0996H11C11.3314 10.0996 11.5996 9.83137 11.5996 9.5C11.5996 9.16863 11.3314 8.90039 11 8.90039H5ZM9.63672 4.18848C9.47271 3.94374 9.11922 3.92231 8.92676 4.14551L6.88965 6.5127C6.74276 6.68294 6.49036 6.71722 6.30273 6.59277L5.64551 6.15625C5.44861 6.02554 5.18223 6.06954 5.04004 6.25781L4.49023 6.98926C4.27018 7.28208 4.47936 7.69989 4.84668 7.7002H11.1523C11.5087 7.7002 11.722 7.30408 11.5244 7.00879L9.63672 4.18848ZM5.06738 3.7002C4.69925 3.7002 4.40039 3.99906 4.40039 4.36719C4.40057 4.73516 4.69936 5.0332 5.06738 5.0332C5.43512 5.03288 5.73322 4.73496 5.7334 4.36719C5.7334 3.99926 5.43524 3.70052 5.06738 3.7002Z" fill="#000001"/>
</svg>
