<svg width="16" height="16" viewBox="0 0 16 16" fill="none" xmlns="http://www.w3.org/2000/svg">
<path fill-rule="evenodd" clip-rule="evenodd" d="M10.7998 1C11.9199 1 12.4804 0.999786 12.9082 1.21777C13.2845 1.40951 13.5905 1.71554 13.7822 2.0918C14.0002 2.51962 14 3.08009 14 4.2002V11.7998C14 12.9199 14.0002 13.4804 13.7822 13.9082L13.7051 14.0459C13.5129 14.3592 13.2374 14.6145 12.9082 14.7822L12.7402 14.8535C12.3311 14.9995 11.7798 15 10.7998 15H5.2002L4.45801 14.9971C3.91644 14.9886 3.55193 14.9578 3.25977 14.8535L3.0918 14.7822C2.76256 14.6145 2.48707 14.3592 2.29492 14.0459L2.21777 13.9082C1.99979 13.4804 2 12.9199 2 11.7998V4.2002C2 3.08009 1.99979 2.51962 2.21777 2.0918C2.40951 1.71554 2.71554 1.40951 3.0918 1.21777C3.41263 1.0543 3.80803 1.01315 4.45801 1.00293L5.2002 1H10.7998Z" fill="#2057B1"/>
<path d="M5.06738 3.7002C5.43546 3.70026 5.7334 3.99909 5.7334 4.36719C5.73331 4.73521 5.43541 5.03314 5.06738 5.0332C4.6993 5.0332 4.40047 4.73525 4.40039 4.36719C4.40039 3.99906 4.69925 3.7002 5.06738 3.7002Z" fill="white"/>
<path d="M8.92696 4.14551C9.11942 3.92227 9.47297 3.94372 9.63699 4.18848L11.5249 7.00879C11.7226 7.3041 11.5096 7.7002 11.1532 7.7002H4.84721C4.47987 7.69993 4.27018 7.28209 4.49023 6.98926L5.04041 6.25781C5.18261 6.06954 5.44861 6.02554 5.64551 6.15625L6.30356 6.59277C6.49121 6.71723 6.74315 6.68299 6.89003 6.5127L8.92696 4.14551Z" fill="white"/>
<path d="M11.0005 8.90057C11.3319 8.90057 11.6001 9.16881 11.6001 9.50018C11.6001 9.83155 11.3319 10.0998 11.0005 10.0998H5.00049C4.66912 10.0998 4.40088 9.83155 4.40088 9.50018C4.40088 9.16881 4.66912 8.90057 5.00049 8.90057H11.0005Z" fill="white"/>
<path opacity="0.7" d="M8.5 11.2998C8.83137 11.2998 9.09961 11.568 9.09961 11.8994C9.09961 12.2308 8.83137 12.499 8.5 12.499H5C4.66863 12.499 4.40039 12.2308 4.40039 11.8994C4.40039 11.568 4.66863 11.2998 5 11.2998H8.5Z" fill="white"/>
</svg>
