<svg width="16" height="16" viewBox="0 0 16 16" fill="none" xmlns="http://www.w3.org/2000/svg">
<path fill-rule="evenodd" clip-rule="evenodd" d="M10.7998 1C11.9199 1 12.4804 0.999786 12.9082 1.21777C13.2845 1.40951 13.5905 1.71554 13.7822 2.0918C14.0002 2.51962 14 3.08009 14 4.2002V11.7998C14 12.9199 14.0002 13.4804 13.7822 13.9082L13.7051 14.0459C13.5129 14.3592 13.2374 14.6145 12.9082 14.7822L12.7402 14.8535C12.3311 14.9995 11.7798 15 10.7998 15H5.2002L4.45801 14.9971C3.91644 14.9886 3.55193 14.9578 3.25977 14.8535L3.0918 14.7822C2.76256 14.6145 2.48707 14.3592 2.29492 14.0459L2.21777 13.9082C1.99979 13.4804 2 12.9199 2 11.7998V4.2002C2 3.08009 1.99979 2.51962 2.21777 2.0918C2.40951 1.71554 2.71554 1.40951 3.0918 1.21777C3.41263 1.0543 3.80803 1.01315 4.45801 1.00293L5.2002 1H10.7998Z" fill="#23A52D"/>
<path d="M7.59961 11.9902C7.59948 12.3269 7.32694 12.5995 6.99023 12.5996H5.00977C4.67306 12.5995 4.40052 12.3269 4.40039 11.9902V11.0098C4.40052 10.6731 4.67306 10.4005 5.00977 10.4004H6.99023C7.32694 10.4005 7.59948 10.6731 7.59961 11.0098V11.9902Z" fill="white"/>
<path d="M7.59961 8.99023C7.59948 9.32694 7.32694 9.59948 6.99023 9.59961H5.00977C4.67306 9.59948 4.40052 9.32694 4.40039 8.99023V8.00977C4.40052 7.67306 4.67306 7.40052 5.00977 7.40039H6.99023C7.32694 7.40052 7.59948 7.67306 7.59961 8.00977V8.99023Z" fill="white"/>
<path d="M11.5996 8.99023C11.5995 9.32694 11.3269 9.59948 10.9902 9.59961H9.00977C8.67306 9.59948 8.40052 9.32694 8.40039 8.99023V8.00977C8.40052 7.67306 8.67306 7.40052 9.00977 7.40039H10.9902C11.3269 7.40052 11.5995 7.67306 11.5996 8.00977V8.99023Z" fill="white"/>
<path opacity="0.7" d="M11.5996 11.9902C11.5995 12.3269 11.3269 12.5995 10.9902 12.5996H9.00977C8.67306 12.5995 8.40052 12.3269 8.40039 11.9902V11.0098C8.40052 10.6731 8.67306 10.4005 9.00977 10.4004H10.9902C11.3269 10.4005 11.5995 10.6731 11.5996 11.0098V11.9902Z" fill="white"/>
</svg>
