<svg width="16" height="16" viewBox="0 0 16 16" fill="none" xmlns="http://www.w3.org/2000/svg">
<path fill-rule="evenodd" clip-rule="evenodd" d="M5.2002 1C4.08009 1 3.51962 0.999786 3.0918 1.21777C2.71554 1.40951 2.40951 1.71554 2.21777 2.0918C1.99979 2.51962 2 3.08009 2 4.2002V11.7998C2 12.9199 1.99979 13.4804 2.21777 13.9082L2.29492 14.0459C2.48707 14.3592 2.76256 14.6145 3.0918 14.7822L3.25977 14.8535C3.66887 14.9995 4.22019 15 5.2002 15H10.7998L11.542 14.9971C12.0836 14.9886 12.4481 14.9578 12.7402 14.8535L12.9082 14.7822C13.2374 14.6145 13.5129 14.3592 13.7051 14.0459L13.7822 13.9082C14.0002 13.4804 14 12.9199 14 11.7998V4.2002C14 3.08009 14.0002 2.51962 13.7822 2.0918C13.5905 1.71554 13.2845 1.40951 12.9082 1.21777C12.5874 1.0543 12.192 1.01315 11.542 1.00293L10.7998 1H5.2002ZM8.76749 5.08373C8.49651 5.04209 8.27296 5.26821 8.27296 5.54238V8.02472C8.27296 8.16182 8.16182 8.27295 8.02473 8.27295H5.54239C5.26822 8.27295 5.0421 8.49651 5.08374 8.76748C5.32176 10.3149 6.6589 11.5 8.27296 11.5C10.0552 11.5 11.5 10.0552 11.5 8.27295C11.5 6.6589 10.3149 5.32175 8.76749 5.08373ZM7.27995 4.5C5.74448 4.5 4.49993 5.74455 4.49993 7.28003C4.49993 7.44454 4.6331 7.57771 4.79761 7.57771H7.27995C7.44447 7.57771 7.57764 7.44454 7.57764 7.28003V4.79769C7.57764 4.63317 7.44447 4.5 7.27995 4.5Z" fill="#000001"/>
</svg>
