<svg width="16" height="16" viewBox="0 0 16 16" fill="none" xmlns="http://www.w3.org/2000/svg">
<path fill-rule="evenodd" clip-rule="evenodd" d="M10.7998 1C11.9199 1 12.4804 0.999786 12.9082 1.21777C13.2845 1.40951 13.5905 1.71554 13.7822 2.0918C14.0002 2.51962 14 3.08009 14 4.2002V11.7998C14 12.9199 14.0002 13.4804 13.7822 13.9082L13.7051 14.0459C13.5129 14.3592 13.2374 14.6145 12.9082 14.7822L12.7402 14.8535C12.3311 14.9995 11.7798 15 10.7998 15H5.2002L4.45801 14.9971C3.91644 14.9886 3.55193 14.9578 3.25977 14.8535L3.0918 14.7822C2.76256 14.6145 2.48707 14.3592 2.29492 14.0459L2.21777 13.9082C1.99979 13.4804 2 12.9199 2 11.7998V4.2002C2 3.08009 1.99979 2.51962 2.21777 2.0918C2.40951 1.71554 2.71554 1.40951 3.0918 1.21777C3.41263 1.0543 3.80803 1.01315 4.45801 1.00293L5.2002 1H10.7998Z" fill="#FB327E"/>
<path fill-rule="evenodd" clip-rule="evenodd" d="M8.76749 5.08407C8.49651 5.04243 8.27296 5.26855 8.27296 5.54272V8.02506C8.27296 8.16215 8.16182 8.27329 8.02473 8.27329H5.54239C5.26822 8.27329 5.0421 8.49684 5.08374 8.76782C5.32176 10.3153 6.6589 11.5003 8.27296 11.5003C10.0552 11.5003 11.5 10.0555 11.5 8.27329C11.5 6.65923 10.3149 5.32209 8.76749 5.08407Z" fill="white"/>
<path opacity="0.7" fill-rule="evenodd" clip-rule="evenodd" d="M7.28044 4.5C5.74497 4.5 4.50041 5.74455 4.50041 7.28003C4.50041 7.44454 4.63358 7.57771 4.7981 7.57771H7.28044C7.44495 7.57771 7.57812 7.44454 7.57812 7.28003V4.79769C7.57812 4.63317 7.44495 4.5 7.28044 4.5Z" fill="white"/>
</svg>
